<?xml version="1.0" standalone="no"?>
<!DOCTYPE svg PUBLIC "-//W3C//DTD SVG 1.1//EN" "http://www.w3.org/Graphics/SVG/1.1/DTD/svg11.dtd" >
<svg>
<metadata>
Created by FontForge 20090914 at Sat Oct 31 19:45:46 2015
 By www-data
</metadata>
<defs>
<font id="iconfont" horiz-adv-x="1024" >
  <font-face 
    font-family="iconfont"
    font-weight="500"
    font-stretch="normal"
    units-per-em="1024"
    panose-1="2 0 6 3 0 0 0 0 0 0"
    ascent="812"
    descent="-212"
    x-height="791.995"
    bbox="-0.00195312 -263 1127 864"
    underline-thickness="50"
    underline-position="-100"
    unicode-range="U+0024-U+E643"
  />
<missing-glyph horiz-adv-x="374" 
d="M34 0v682h272v-682h-272zM68 34h204v614h-204v-614z" />
    <glyph glyph-name=".notdef" horiz-adv-x="374" 
d="M34 0v682h272v-682h-272zM68 34h204v614h-204v-614z" />
    <glyph glyph-name="dollar" unicode="$" 
d="M563 631c-24.667 0 -50.0049 -1.83105 -76.0049 -5.49805s-46 -7.5 -60 -11.5l-20 -6c-1.33301 1.33301 -3.16602 3 -5.49902 5s-7 5.66699 -14 11s-14.333 10.333 -22 15s-17.334 9.33398 -29.001 14.001s-23.5 8.16699 -35.5 10.5s-25.5 3.16602 -40.5 2.49902
s-29.833 -3.33398 -44.5 -8.00098c8.66699 -9.33301 13.667 -19.833 15 -31.5s2 -25.5 2 -41.5s3 -31 9 -45c-6 -5.33301 -11.667 -10.666 -17 -15.999l-16 -16.5c-5.33301 -5.66699 -10.5 -11.5 -15.5 -17.5l-14.5 -18c-12 -16 -18.833 -42.333 -20.5 -79
s-6.5 -60.334 -14.5 -71.001c-7.33301 -10.667 -15.666 -17.167 -24.999 -19.5s-18.166 -3.66602 -26.499 -3.99902s-14.833 -3.5 -19.5 -9.5c-3.33301 -4 -5.33301 -14.5 -6 -31.5s0.833008 -36 4.5 -57s9.16699 -36.5 16.5 -46.5c9.33301 -8 18.833 -13.333 28.5 -16
s18.167 -3.5 25.5 -2.5s16 -0.666992 26 -5s20.333 -11.833 31 -22.5c22 -29.333 48.667 -55 80 -77c2 -2 1.5 -6 -1.5 -12s-6 -13.667 -9 -23s-2.16699 -22.333 2.5 -39c4 -8.66699 20.167 -14 48.5 -16s48.166 0 59.499 6c4 3.33301 6.16699 7.16602 6.5 11.499
s0 7.5 -1 9.5s0.166992 3.66699 3.5 5c6 -2 11.667 -4 17 -6c4 -3.33301 5 -9 3 -17s-1.5 -16.167 1.5 -24.5s10.167 -12.5 21.5 -12.5c8.66699 -1.33301 32 -1.33301 70 0c4.66699 1.33301 8 4.66602 10 9.99902s3.33301 10.166 4 14.499s1.33398 6.5 2.00098 6.5
c8.66699 -0.666992 17.334 -1.16699 26.001 -1.5s17.667 -0.5 27 -0.5c11.333 0 22.833 0.833008 34.5 2.5s20.834 3.33398 27.501 5.00098s16.834 4.66699 30.501 9l29.5 9.5c6 0.666992 9.33301 -0.666016 10 -3.99902s-0.166016 -7.5 -2.49902 -12.5
s-3.5 -9.83301 -3.5 -14.5s2.33301 -7.66699 7 -9l49 -2c32 -0.666992 50 2.66602 54 9.99902c8.66699 8 12.667 26.667 12 56s2.66602 45 9.99902 47c48.667 31.333 82.167 65.833 100.5 103.5s27.5 86.167 27.5 145.5c0 94 -35 173.333 -105 238
c-75.333 70 -171.333 105 -288 105zM266.995 384.002c-7.33301 0 -13.665 2.66602 -18.998 7.99902s-8 11.833 -8 19.5s2.66699 14.167 8 19.5s11.666 8 18.999 8c4 0 7.66699 -0.666992 11 -2s6.16602 -3.16602 8.49902 -5.49902s4.33301 -5.33301 6 -9
s2.5 -7.16699 2.5 -10.5c0 -5.33301 -1.33301 -10 -4 -14s-6 -7.33301 -10 -10s-8.66699 -4 -14 -4zM735.996 437.001c-16.667 6.66699 -34.333 12.3359 -53 17.0029s-35.167 7.66699 -49.5 9s-27.333 2.16602 -39 2.49902s-20.834 0.166016 -27.501 -0.500977h-9
c-8 0 -14.667 2.66699 -20 8s-8 11.833 -8 19.5s2.66699 14.167 8 19.5s12 8 20 8c18 0.666992 36.5 0.166992 55.5 -1.5s35.5 -3.83398 49.5 -6.50098s26.833 -5.5 38.5 -8.5s20.5 -5.5 26.5 -7.5l8 -4c10.667 -2.66699 17.834 -6 21.501 -10s5.5 -9.83301 5.5 -17.5
s-2.5 -14.167 -7.5 -19.5s-11.5 -8 -19.5 -8z" />
    <glyph glyph-name="x" unicode="x" horiz-adv-x="1001" 
d="M281 543c-18 -0.666992 -35.668 -1.00098 -53.001 -1.00098h-83c-12 0 -24.167 -2 -36.5 -6s-23.166 -10.167 -32.499 -18.5s-17 -19 -23 -32s-9 -28.167 -9 -45.5v-76h912v41c0 10.667 -0.166992 20.667 -0.5 30s-0.5 15.333 -0.5 18
c0 8.66699 -1.66699 18.334 -5 29.001s-9 20.5 -17 29.5s-18.5 16.5 -31.5 22.5s-29.5 9 -49.5 9h-133v-97h-438v97zM954.999 309.999l-0.000976562 -52.002c0 -15.333 0.166992 -32.666 0.5 -51.999s0.5 -38.666 0.5 -57.999s-3.5 -35.166 -10.5 -47.499
s-15.667 -22.333 -26 -30s-21.333 -13 -33 -16s-22.167 -4.5 -31.5 -4.5c-9.33301 -0.666992 -19.166 -0.833984 -29.499 -0.500977s-20.166 0.5 -29.499 0.5h-32l-45 128h-439l-44 -128h-29h-34c-13.333 0 -28.333 0.333008 -45 1c-16.667 0 -30.334 3.16699 -41.001 9.5
s-19.167 14 -25.5 23s-10.833 18.833 -13.5 29.5s-4 20.667 -4 30v167h911zM162.998 246.997c-8 0 -15 -2.83301 -21 -8.5s-9 -12.834 -9 -21.501s3 -15.834 9 -21.501s13 -8.5 21 -8.5c8.66699 0 16 2.83301 22 8.5s9 12.834 9 21.501s-3 15.834 -9 21.501
s-13.333 8.5 -22 8.5zM315.998 122.997c-5.33301 -17.333 -9.99805 -33.335 -13.998 -48.002c-3.33301 -12.667 -6.83301 -25 -10.5 -37l-7.5 -25c-1.33301 -4.66699 -2.33301 -9.66699 -3 -15s-0.333984 -10.166 0.999023 -14.499s4.5 -7.83301 9.5 -10.5
s12.167 -4 21.5 -4h37h67h81h80h64h36c15.333 0 26.666 4 33.999 12s8 20.667 2 38c-3.33301 8.66699 -6.5 18.834 -9.5 30.501s-6.16699 23.167 -9.5 34.5c-3.33301 12.667 -7 25.667 -11 39h-368zM336 497.995l-0.000976562 228c0 7.33301 0.833008 15 2.5 23
s5 15.167 10 21.5s11.833 11.5 20.5 15.5s20 6 34 6h188c20.667 0 37.834 -4.83301 51.501 -14.5s20.5 -27.167 20.5 -52.5v-227h-327z" />
    <glyph glyph-name="yen" unicode="&#xa5;" 
d="M785 625c0 19.333 -8.33203 37.668 -24.999 55.001s-36.334 26 -59.001 26h-410c-25.333 0 -46 -9 -62 -27s-24 -36 -24 -54v-709c0 -19.333 8.83301 -37.5 26.5 -54.5s36.5 -25.5 56.5 -25.5h414c22.667 0 41 7.66699 55 23s22 27.666 24 36.999s3.33301 17 4 23v157
v287v262zM495.001 -130.998c-6.66699 0 -12.667 1.49805 -18 4.49805s-9.66602 7.33301 -12.999 13s-5 11.834 -5 18.501c0 3.33301 0.5 6.5 1.5 9.5s2.16699 5.83301 3.5 8.5s3.16602 5.16699 5.49902 7.5s4.83301 4.33301 7.5 6s5.5 2.83398 8.5 3.50098s6.16699 1 9.5 1
c10 0 18.667 -3.5 26 -10.5s11 -15.5 11 -25.5s-3.66699 -18.5 -11 -25.5s-16 -10.5 -26 -10.5zM724.001 -40h-457v654h457v-654zM651.001 442l-31 30l-122 -126l-128 132l-31 -30l106 -109h-90v-32h116v-62h-116v-30h116v-120h49v120h115v30h-115v62h115v32h-83z" />
    <glyph glyph-name="Omega" unicode="&#x3a9;" 
d="M917 -164l-226.003 194.001h-2c38.667 0 69.834 7.66699 93.501 23s35.5 40 35.5 74v419c0 26.667 -4.5 50.667 -13.5 72s-23.833 41.666 -44.5 60.999s-50.667 34.333 -90 45s-86.666 16 -141.999 16c-194 0 -291 -64.667 -291 -194v-419c0 -34 11.833 -58.667 35.5 -74
s54.834 -23 93.501 -23l-226 -194h711v1l1 -1h65zM721.997 165.001c-2 -4 -4.50293 -7.66504 -7.50293 -10.998s-6.5 -6 -10.5 -8s-8.16699 -3.5 -12.5 -4.5s-8.5 -1.33301 -12.5 -1s-7.66699 1.33301 -11 3s-6 4.33398 -8 8.00098s-3 8.16699 -3 13.5v61
c0 7.33301 5.33301 16.166 16 26.499s21.334 18.833 32.001 25.5l17 10c2.66699 0 5.33398 -0.333008 8.00098 -1s5.16699 -1.66699 7.5 -3s4.5 -3 6.5 -5s3.83301 -4.16699 5.5 -6.5s2.83398 -4.83301 3.50098 -7.5s1 -5.33398 1 -8.00098
c0.666992 -0.666992 -10 -31.334 -32 -92.001zM663.994 -2.99707h-271l38 33h195zM527.994 708.003c8.66699 0 16.166 -3.16699 22.499 -9.5s9.5 -13.833 9.5 -22.5v-6l-2 -4c0 -2 -0.5 -3.83301 -1.5 -5.5s-2 -3 -3 -4s-2 -2.16699 -3 -3.5s-2.16699 -2.5 -3.5 -3.5
s-2.83301 -1.83301 -4.5 -2.5s-3.16699 -1.33398 -4.5 -2.00098s-3 -1.16699 -5 -1.5s-3.66699 -0.5 -5 -0.5c-9.33301 0 -17.166 3.16699 -23.499 9.5s-9.5 14.166 -9.5 23.499c0 2.66699 0.5 5.33398 1.5 8.00098s2.16699 5.16699 3.5 7.5s3 4.5 5 6.5
s4.16699 3.83301 6.5 5.5s4.83301 2.83398 7.5 3.50098s5.66699 1 9 1zM301.993 546.003c0 12 2.83301 23 8.5 33s13.5 17.833 23.5 23.5s20.667 8.5 32 8.5h323c18 0 33.333 -6.33301 46 -19s19 -28 19 -46v-64c0 -18 -6.33301 -33.333 -19 -46s-28 -19 -46 -19h-161h-162
c-17.333 0 -32.333 6.33301 -45 19s-19 28 -19 46v64zM333.993 159.003c-21.333 60 -32 92.333 -32 97c0 8.66699 3.16699 16.167 9.5 22.5s13.833 9.5 22.5 9.5c4.66699 -2.66699 10.667 -6.5 18 -11.5s17 -13.167 29 -24.5s18 -21 18 -29v-64
c0 -12.667 -4.66699 -20.667 -14 -24s-19.333 -2.5 -30 2.5s-17.667 12.167 -21 21.5zM365.993 -25.9971v-9h323v10l50 -42h-421zM241.993 -131.997l38 32h497l37 -32h-572z" />
    <glyph glyph-name="ltshade" unicode="&#x2591;" 
d="M501 323c-14.667 0 -26.333 4.33398 -35 13.001c-8.66699 9.33301 -13 21.333 -13 36c0 13.333 4.33301 24.666 13 33.999c8 8.66699 19 13 33 13s25.667 -4.33301 35 -13c8.66699 -8.66699 13 -20 13 -34c0 -15.333 -4.33301 -27.333 -13 -36s-19.667 -13 -33 -13z
M550.001 227.001c12.667 -11.333 18.998 -26.333 18.998 -45c0 -18 -6 -32.667 -18 -44c-13.333 -10.667 -29.666 -16 -48.999 -16c-20.667 0 -37.334 6 -50.001 18c-13.333 12 -20 26.5 -20 43.5s7 31.5 21 43.5c12.667 12 29.334 18 50.001 18
c18.667 0 34.334 -6 47.001 -18zM930.999 640.001c26 0 48 -9 66 -27s27 -40 27 -66v-558c0 -26 -9 -48 -27 -66s-40 -27 -66 -27h-93v46h-47v-46h-698c-26 0 -48 9 -66 27s-27 40 -27 66v558c0 26 9 48 27 66s40 27 66 27h698v-47h47v47h93zM277.999 489.001h-124l-49 -78
h81v-355h92v433zM632.999 109.001c12 20.667 18 43.3359 18 68.0029c0 23.333 -5.33301 44.666 -16 63.999c-10 20.667 -25 37 -45 49c14 15.333 24.667 30.333 32 45c5.33301 14.667 8 29 8 43c0 23.333 -5.66699 44 -17 62c-11.333 19.333 -26.666 34.333 -45.999 45
c-19.333 10 -41 15 -65 15c-26.667 0 -49.667 -5 -69 -15c-20 -10.667 -35.333 -25.334 -46 -44.001c-10.667 -18 -16 -38.667 -16 -62c0 -16.667 3.33301 -32.334 10 -47.001c5.33301 -13.333 15.333 -27.333 30 -42c-21.333 -16 -36.333 -32.667 -45 -50
c-10.667 -20 -16 -41 -16 -63c0 -26 6.16699 -49.5 18.5 -70.5s29.166 -36.5 50.499 -46.5c20.667 -10.667 48.667 -16 84 -16c32.667 0 59 5.66699 79 17c20 9.33301 37 25.333 51 48zM837.999 81.0029h-47v-46h47v46zM837.999 220.003h-47v-47h47v47zM837.999 360.003h-47
v-47h47v47zM837.999 499.003h-47v-46h47v46z" />
    <glyph glyph-name="uni25B6" unicode="&#x25b6;" 
d="M920 709l-0.000976562 -10.9971c0 -10.667 -3.66699 -19.5 -11 -26.5s-16 -10.5 -26 -10.5h-22c-10 0 -18.667 3.5 -26 10.5s-11 15.833 -11 26.5v21c0 1.33301 0.166992 2.66602 0.5 3.99902s0.5 2.66602 0.5 3.99902s0.166992 2.5 0.5 3.5s0.833008 2.16699 1.5 3.5
h-626c1.33301 -4.66699 2 -9.66699 2 -15v-21c0 -4 -0.5 -8 -1.5 -12s-2.66699 -7.5 -5 -10.5s-5 -5.66699 -8 -8s-6.5 -4 -10.5 -5s-8 -1.5 -12 -1.5h-21c-4 0 -8 0.5 -12 1.5s-7.5 2.66699 -10.5 5s-5.66699 5 -8 8s-4 6.5 -5 10.5s-1.5 8 -1.5 12v14
c-6.66699 -4.66699 -12.5 -10.167 -17.5 -16.5s-9.33301 -13 -13 -20s-6.5 -14.5 -8.5 -22.5s-3 -16.333 -3 -25v-681c0 -34.667 14 -62.667 42 -84v14c0 10.667 3.5 19.5 10.5 26.5s15.833 10.5 26.5 10.5h21c10.667 0 19.5 -3.5 26.5 -10.5s10.5 -15.833 10.5 -26.5v-21
c0 -5.33301 -0.666992 -10 -2 -14h626c-2 4 -3 8.66699 -3 14v21c0 6.66699 1.66699 13 5 19s7.83301 10.5 13.5 13.5s11.834 4.5 18.501 4.5h22c10 0 18.667 -3.5 26 -10.5s11 -15.833 11 -26.5v-11c25.333 20.667 38 47.667 38 81v681c0 16 -3.33301 31.167 -10 45.5
s-16 26.166 -28 35.499zM202.999 24.0029c0 -4 -0.5 -7.83398 -1.5 -11.501s-2.66699 -7 -5 -10s-5 -5.66699 -8 -8s-6.5 -4.16602 -10.5 -5.49902s-8 -2 -12 -2h-21c-10.667 0 -19.5 3.66699 -26.5 11s-10.5 16 -10.5 26v22c0 10 3.5 18.667 10.5 26s15.833 11 26.5 11h21
c10.667 0 19.5 -3.66699 26.5 -11s10.5 -16 10.5 -26v-22zM202.999 193.002c0 -7.33301 -1.5 -13.832 -4.5 -19.499s-7.5 -10.167 -13.5 -13.5s-12.333 -5 -19 -5h-21c-10.667 0 -19.5 3.66699 -26.5 11s-10.5 16.333 -10.5 27v21c0 4 0.5 8 1.5 12s2.66699 7.5 5 10.5
s5 5.66699 8 8s6.5 4 10.5 5s8 1.5 12 1.5h21c6.66699 0 13 -1.66699 19 -5s10.5 -7.83301 13.5 -13.5s4.5 -11.834 4.5 -18.501v-21zM202.999 361.003c0 -10 -3.5 -18.668 -10.5 -26.001s-15.833 -11 -26.5 -11h-21c-6.66699 0 -13 1.66699 -19 5s-10.5 7.83301 -13.5 13.5
s-4.5 11.834 -4.5 18.501v22c0 6.66699 1.5 12.834 4.5 18.501s7.5 10.167 13.5 13.5s12.333 5 19 5h21c6.66699 0 13 -1.66699 19 -5s10.5 -7.83301 13.5 -13.5s4.5 -11.834 4.5 -18.501v-22zM202.999 529.002c0 -10 -3.5 -18.668 -10.5 -26.001s-15.833 -11 -26.5 -11h-21
c-10.667 0 -19.5 3.66699 -26.5 11s-10.5 16 -10.5 26v22c0 6.66699 1.5 12.834 4.5 18.501s7.5 10.167 13.5 13.5s12.333 5 19 5h21c10.667 0 19.5 -3.66699 26.5 -11s10.5 -16 10.5 -26v-22zM773.999 -25.999c0 -10 -1.99902 -19.666 -5.99902 -28.999
s-9.33301 -17.333 -16 -24s-14.5 -11.834 -23.5 -15.501s-18.5 -5.5 -28.5 -5.5h-378c-20.667 0 -38.167 7.16699 -52.5 21.5s-21.5 31.833 -21.5 52.5v203c0 20.667 7.16699 38.167 21.5 52.5s31.833 21.5 52.5 21.5h378c13.333 0 25.666 -3.16699 36.999 -9.5
s20.333 -15.333 27 -27s10 -24.167 10 -37.5v-203zM774 383.002c0 -13.333 -3.33398 -25.833 -10.001 -37.5s-15.667 -20.834 -27 -27.501s-23.666 -10 -36.999 -10h-378c-20.667 0 -38.167 7.33301 -52.5 22s-21.5 32.334 -21.5 53.001v203
c0 20.667 7.16699 38.167 21.5 52.5s31.833 21.5 52.5 21.5h378c20.667 0 38.167 -7.16699 52.5 -21.5s21.5 -31.833 21.5 -52.5v-203zM919.999 24.002c0 -10 -3.66797 -18.668 -11.001 -26.001s-16 -11 -26 -11h-22c-10 0 -18.667 3.66699 -26 11s-11 16 -11 26v22
c0 6.66699 1.66699 12.834 5 18.501s7.83301 10.167 13.5 13.5s11.834 5 18.501 5h22c10 0 18.667 -3.66699 26 -11s11 -16 11 -26v-22zM919.998 193.001c0 -10.667 -3.66797 -19.668 -11.001 -27.001s-16 -11 -26 -11h-22c-10 0 -18.667 3.66699 -26 11s-11 16.333 -11 27
v21c0 6.66699 1.66699 12.834 5 18.501s7.83301 10.167 13.5 13.5s11.834 5 18.501 5h22c4 0 7.83301 -0.5 11.5 -1.5s7.16699 -2.66699 10.5 -5s6 -5 8 -8s3.66699 -6.5 5 -10.5s2 -8 2 -12v-21zM919.997 361c0 -10 -3.66895 -18.667 -11.002 -26s-16 -11 -26 -11h-22
c-10 0 -18.667 3.66699 -26 11s-11 16 -11 26v22c0 6.66699 1.66699 12.834 5 18.501s7.83301 10.167 13.5 13.5s11.834 5 18.501 5h22c6.66699 0 12.834 -1.66699 18.501 -5s10.167 -7.83301 13.5 -13.5s5 -11.834 5 -18.501v-22zM919.995 529
c0 -4.66699 -1.00293 -9.33398 -3.00293 -14.001s-4.66699 -8.66699 -8 -12s-7.16602 -6 -11.499 -8s-9.16602 -3 -14.499 -3h-22c-10 0 -18.667 3.66699 -26 11s-11 16 -11 26v22c0 6.66699 1.66699 12.834 5 18.501s7.83301 10.167 13.5 13.5s11.834 5 18.501 5h22
c10 0 18.667 -3.66699 26 -11s11 -16 11 -26v-22z" />
    <glyph glyph-name="uni2600" unicode="&#x2600;" 
d="M939 303l-38.9971 -13.498l-45 -15.5l-40 -13c-10.667 -20.667 -30.834 -57.834 -60.501 -111.501l-80 -145.5c-23.667 -43.333 -37.167 -68.333 -40.5 -75c-1.33301 -1.33301 -3.5 -3.83301 -6.5 -7.5s-7.33301 -7.33398 -13 -11.001s-12.334 -4.66699 -20.001 -3
s-14.5 7.16699 -20.5 16.5l-70.5 103.5l-68.5 101.5c-0.666992 0.666992 -1.33398 1.66699 -2.00098 3v1l-209 -71c-14 -4.66699 -26.5 -3.5 -37.5 3.5s-17.833 17.167 -20.5 30.5l-101 548c-2.66699 12 0.333008 20.333 9 25c6.66699 3.33301 16 3 28 -1l205 -71l170 -59
c51.333 -18 128.333 -46.5 231 -85.5s179.667 -67.5 231 -85.5c17.333 -6 26 -16.667 26 -32c0 -16 -8.66699 -26.667 -26 -32zM814.003 261.002c-6 -2.66699 -11.502 -4.83496 -16.502 -6.50195s-9.83301 -3.16699 -14.5 -4.5
c2.66699 2.66699 6.33398 4.83398 11.001 6.50098s8.83398 2.83398 12.501 3.50098s6.16699 1 7.5 1zM715.001 235.001c-5.33301 4 -47.668 31 -127.001 81l-222.5 148.5c-99 67 -173.5 116.167 -223.5 147.5c-0.666992 0.666992 -1.66699 1.33398 -3 2.00098l-4 2
c-1.33301 0.666992 -2.33301 1.33398 -3 2.00098v-2h-1l227.5 -215l228.5 -216h-1c-2 -1.33301 -3.66699 -2.33301 -5 -3l-29 -9c2.66699 1.33301 14.334 5.33301 35.001 12l10.5 -107.5l10.5 -107.5c1.33301 -0.666992 2.33301 -0.833984 3 -0.500977s2 2.83301 4 7.5
c12.667 23.333 31.667 65.5 57 126.5s44.333 103.5 57 127.5l1 1c-2.66699 0 -5.16699 0.166992 -7.5 0.5s-4.83301 1.16602 -7.5 2.49902z" />
    <glyph glyph-name="uni2602" unicode="&#x2602;" 
d="M202 -162h616v626h-616v-626zM337 506l-0.000976562 116.999c0 4 0.5 8.16699 1.5 12.5s2.5 8.16602 4.5 11.499s4.5 6.5 7.5 9.5s6.33301 5.5 10 7.5s7.5 3.66699 11.5 5s8.33301 2 13 2h250c4 0 7.83301 -0.5 11.5 -1.5s7 -2.16699 10 -3.5
s5.83301 -3.16602 8.5 -5.49902s5.16699 -4.83301 7.5 -7.5s4.33301 -5.66699 6 -9s2.83398 -6.83301 3.50098 -10.5s1 -7.16699 1 -10.5v-117h68v117c0 20.667 -5.16699 39.834 -15.5 57.501s-24.333 31.667 -42 42s-37.167 15.5 -58.5 15.5h-250
c-32 0 -59.333 -11.333 -82 -34s-34 -49.667 -34 -81v-117h68zM90.999 463.999h63v-626h-63c-22.667 0 -42 8 -58 24s-24 35.333 -24 58v462c0 22.667 8 42 24 58s35.333 24 58 24zM928.999 463.999h-63v-626h63c22.667 0 42 8 58 24s24 35.333 24 58v462
c0 22.667 -8 42 -24 58s-35.333 24 -58 24zM332.999 -33.001v191l-21 15l51 162l34 -25l-45 -142h26v-201h-45zM469.999 222.999h185v66h-185v-66zM611.999 99.999h-28v-133h-43v133h-28l-62 -133l-38 13l55 120h-53v40h126v46h-114v142h272v-142h-115v-46h124v-40h-53
l53 -119l-37 -14z" />
    <glyph glyph-name="uni260B" unicode="&#x260b;" 
d="M727 -126h-430c-64 0 -118.667 25.5 -164 76.5s-68 112.5 -68 184.5s22.667 133.5 68 184.5s100 76.5 164 76.5h430c64 0 118.667 -25.5 164 -76.5s68 -112.5 68 -184.5s-22.667 -133.5 -68 -184.5s-100 -76.5 -164 -76.5zM370 172l-47.999 0.000976562v57
c0 9.33301 -3.33301 17.333 -10 24s-14.334 10 -23.001 10c-6 0 -11.667 -1.5 -17 -4.5s-9.5 -7.16699 -12.5 -12.5s-4.5 -11 -4.5 -17v-57h-56c-4.66699 0 -9.16699 -0.833008 -13.5 -2.5s-8 -4 -11 -7s-5.5 -6.5 -7.5 -10.5s-3 -8.33301 -3 -13
c0 -6 1.66699 -11.5 5 -16.5s7.5 -9 12.5 -12s10.833 -4.5 17.5 -4.5h56v-49c0 -9.33301 3.33301 -17.333 10 -24s14.5 -10 23.5 -10s16.833 3.33301 23.5 10s10 14.667 10 24v49h48c9.33301 0 17.333 3.16699 24 9.5s10 14.166 10 23.499c0 6 -1.5 11.5 -4.5 16.5
s-7.16699 9 -12.5 12s-11 4.5 -17 4.5zM636.001 172.001c-9.33301 0 -17.166 -3.16699 -23.499 -9.5s-9.5 -14.166 -9.5 -23.499c0 -6 1.5 -11.5 4.5 -16.5s7 -9 12 -12s10.5 -4.5 16.5 -4.5c9.33301 0 17.166 3.16699 23.499 9.5s9.5 14.166 9.5 23.499
c0 4.66699 -0.833008 9 -2.5 13s-4 7.5 -7 10.5s-6.5 5.33301 -10.5 7s-8.33301 2.5 -13 2.5zM727.001 263.001c-2.66699 0 -5.49707 -0.334961 -8.49707 -1.00195s-5.66699 -1.66699 -8 -3s-4.5 -3.16602 -6.5 -5.49902s-3.83301 -4.66602 -5.5 -6.99902
s-2.83398 -4.83301 -3.50098 -7.5s-1 -5.66699 -1 -9c0 -9.33301 3.16699 -17.166 9.5 -23.499s14.166 -9.5 23.499 -9.5s17.166 3.16699 23.499 9.5s9.5 14.166 9.5 23.499c0 4.66699 -0.833008 9 -2.5 13s-4 7.5 -7 10.5s-6.5 5.33301 -10.5 7s-8.33301 2.5 -13 2.5z
M727.004 80.999c-2 0 -3.99805 -0.165039 -5.99805 -0.498047s-3.83301 -0.833008 -5.5 -1.5s-3.33398 -1.5 -5.00098 -2.5s-3.16699 -2.16699 -4.5 -3.5l-4 -4c-1.33301 -1.33301 -2.5 -2.83301 -3.5 -4.5s-1.83301 -3.33398 -2.5 -5.00098s-1.16699 -3.5 -1.5 -5.5
s-0.5 -4 -0.5 -6c0 -9.33301 3.16699 -17.166 9.5 -23.499s14.166 -9.5 23.499 -9.5s17.166 3.16699 23.499 9.5s9.5 14.166 9.5 23.499s-3.16699 17.166 -9.5 23.499s-14.166 9.5 -23.499 9.5zM818.506 172.001c-9 0 -16.833 -3.16699 -23.5 -9.5s-10 -14.166 -10 -23.499
s3.33301 -17.166 10 -23.499s14.5 -9.5 23.5 -9.5s16.667 3.16699 23 9.5s9.5 14.166 9.5 23.499s-3.16699 17.166 -9.5 23.499s-14 9.5 -23 9.5zM547.006 445.001l-75.999 0.00195312v52c0 28.667 4.83301 51.167 14.5 67.5s21.667 26.166 36 29.499s30 5.66602 47 6.99902
s32.833 2 47.5 2s26.834 4.33301 36.501 13s14.5 22.334 14.5 41.001v45h77v-52c0 -26 -3 -47.333 -9 -64s-14 -28.167 -24 -34.5s-21.167 -10.833 -33.5 -13.5s-24.833 -3.5 -37.5 -2.5s-24.834 0.666992 -36.501 -1s-22 -4.5 -31 -8.5s-15.833 -12.833 -20.5 -26.5
s-6.33398 -31.834 -5.00098 -54.501z" />
    <glyph glyph-name="uni260D" unicode="&#x260d;" 
d="M512 735c-5.33301 -4 -12.667 -9.83203 -22 -17.499s-27.5 -23.5 -54.5 -47.5s-52.667 -48.167 -77 -72.5s-51.333 -53.5 -81 -87.5s-55.334 -66.5 -77.001 -97.5s-39.834 -63.833 -54.501 -98.5s-22 -66.334 -22 -95.001c0 -68.667 17.333 -132 52 -190
s81.834 -103.833 141.501 -137.5s124.5 -50.5 194.5 -50.5s134.833 16.833 194.5 50.5s106.834 79.5 141.501 137.5s52 121.333 52 190c0 100.667 -84.333 232.667 -253 396c-48.667 47.333 -93.667 87.333 -135 120zM477.999 10.001l34 168h-169l220 270l-34 -168h169z" />
    <glyph glyph-name="uni260E" unicode="&#x260e;" 
d="M512 -111l-150.002 251.001c-107.333 -42 -179.666 -75.667 -216.999 -101c-10.667 -6.66699 -20.667 -16.5 -30 -29.5s-17 -26.333 -23 -40s-11.167 -26.834 -15.5 -39.501s-7.5 -23 -9.5 -31l-3 -12h897c-0.666992 2.66699 -1.5 6.66699 -2.5 12
s-3.66699 14.833 -8 28.5s-9.33301 26.667 -15 39s-13.5 25.5 -23.5 39.5s-21.333 25 -34 33c-37.333 25.333 -109.666 59 -216.999 101zM511.998 89.001l-50 -50l25 -50l-75 -100h199l-75 100l25 50zM516.998 665.001c41.333 0 76.832 -6.66895 106.499 -20.002
s51.5 -28.166 65.5 -44.499s24.833 -38.5 32.5 -66.5s12 -50.167 13 -66.5s1.5 -37.833 1.5 -64.5c0 -24.667 -5.33301 -52.167 -16 -82.5s-25.167 -59.5 -43.5 -87.5s-41.666 -51.667 -69.999 -71s-58.166 -29 -89.499 -29c-25.333 0 -49.833 6.33301 -73.5 19
s-44 29 -61 49s-32.167 42 -45.5 66s-23.166 47.833 -29.499 71.5s-9.5 45.167 -9.5 64.5v33c0 8.66699 0.666992 21 2 37s3.16602 29.167 5.49902 39.5s6.16602 22.833 11.499 37.5s11.5 26.834 18.5 36.501s16.167 19.834 27.5 30.501s24 19.167 38 25.5
s30.833 11.666 50.5 15.999s41.5 6.5 65.5 6.5zM770.997 342.999h-33v149l69 -81zM226.997 410.999l68 81v-149h-33zM762.997 341.999c-0.666992 -4 -1.83398 -9.50098 -3.50098 -16.501s-6 -20.167 -13 -39.5s-15.167 -37.333 -24.5 -54s-22.166 -34.167 -38.499 -52.5
s-34.166 -32.833 -53.499 -43.5c-21.333 -12 -20.333 -5 3 21l38 40c4.66699 4.66699 10.167 10.834 16.5 18.501s16.333 24.167 30 49.5s23.5 51 29.5 77c9.33301 43.333 14.666 48.333 15.999 15v-15z" />
    <glyph glyph-name="uni2668" unicode="&#x2668;" 
d="M420 754h92.998v-373c0 -6 -3.5 -11.833 -10.5 -17.5s-15.667 -10.834 -26 -15.501s-20.833 -8.16699 -31.5 -10.5s-19 -3.5 -25 -3.5v-512c0 -12.667 -4.66699 -23.5 -14 -32.5s-20.333 -13.5 -33 -13.5h-93c-13.333 0 -24.5 4.5 -33.5 13.5s-13.5 19.833 -13.5 32.5
v512c-6 0 -14.167 1.16699 -24.5 3.5s-20.666 5.83301 -30.999 10.5s-19.166 9.83398 -26.499 15.501s-11 11.5 -11 17.5v373h93v-327h47v327h93v-327h47v327zM745.498 754c93 0 139.5 -46.667 139.5 -140v-792c0 -12.667 -4.5 -23.5 -13.5 -32.5s-19.833 -13.5 -32.5 -13.5
h-94c-12.667 0 -23.667 4.5 -33 13.5s-14 19.833 -14 32.5v373h-92v419c0 93.333 46.5 140 139.5 140z" />
    <glyph glyph-name="musicalnotedbl" unicode="&#x266b;" 
d="M604 53c0 -38.667 13.833 -71.835 41.5 -99.502s61 -41.5 100 -41.5s72.167 13.833 99.5 41.5s41 60.834 41 99.501c0 26 -6.33301 49.833 -19 71.5s-29.834 38.667 -51.501 51s-45.167 18.5 -70.5 18.5c-12.667 0 -25.167 -1.66699 -37.5 -5s-23.5 -8 -33.5 -14
s-19.333 -13.333 -28 -22s-16.167 -18.167 -22.5 -28.5s-11.166 -21.666 -14.499 -33.999s-5 -24.833 -5 -37.5zM135 125.499c0 -32.333 11.333 -60.001 34 -83.001s50.334 -34.5 83.001 -34.5c9.33301 0 18.333 1 27 3s16.834 5 24.501 9s15 8.66699 22 14
s13.167 11.333 18.5 18s9.83301 13.834 13.5 21.501s6.5 16 8.5 25s3 17.833 3 26.5c0 32.667 -11.333 60.5 -34 83.5s-50.334 34.5 -83.001 34.5s-60.334 -11.5 -83.001 -34.5s-34 -50.667 -34 -83zM792 453.998v-404h94v404h-94zM276 500.998v-386h93v386h-93z
M276 570.998l-0.00195312 -92.998c0 -26 9.16699 -48.167 27.5 -66.5s40.166 -27.5 65.499 -27.5l423 -47c26 0 48.167 9.16699 66.5 27.5s27.5 40.5 27.5 66.5v93c0 17.333 -4.16699 33.166 -12.5 47.499s-19.666 25.666 -33.999 33.999s-30.166 12.5 -47.499 12.5l-423 47
c-25.333 0 -47.166 -9.16699 -65.499 -27.5s-27.5 -40.5 -27.5 -66.5zM368.998 571l423 -47v-93l-423 47v93z" />
    <glyph glyph-name="uniE600" unicode="&#xe600;" 
d="M996 589l-157.994 125.999c-12 9.33301 -25.333 14 -40 14h-570h-6c-2.66699 0 -5.33398 -0.333008 -8.00098 -1l-6 -2c-2.66699 -0.666992 -5 -1.66699 -7 -3s-4 -2.5 -6 -3.5s-4 -2.5 -6 -4.5l-158 -126c-10.667 -8.66699 -17.834 -19.334 -21.501 -32.001
s-3.5 -25.334 0.5 -38.001l63 -189c6.66699 -20 20 -33.333 40 -40c3.33301 -1.33301 6.66602 -2.33301 9.99902 -3s7 -1 11 -1c5.33301 0 10.666 0.833008 15.999 2.5s10.333 3.83398 15 6.50098v-389c0 -17.333 6.16699 -32.166 18.5 -44.499s27.166 -18.5 44.499 -18.5
h570c17.333 0 32.166 6.16699 44.499 18.5s18.5 27.166 18.5 44.499v389c10 -6 20.667 -9 32 -9c7.33301 0 14.333 1.33301 21 4c9.33301 2.66699 17.333 7.5 24 14.5s11.667 15.5 15 25.5l63 189c4.66699 12.667 5 25.334 1 38.001s-11 23.334 -21 32.001zM632.006 665.999
c-8.66699 -18.667 -23.833 -33.833 -45.5 -45.5s-46.167 -17.5 -73.5 -17.5c-18 0 -35 2.66699 -51 8s-29.833 12.833 -41.5 22.5s-20.5 20.5 -26.5 32.5h238zM893.007 350l-95.0029 62.999v-507h-570v507l-94 -63l-64 189l158 127h133c8.66699 -27.333 27.167 -50 55.5 -68
s60.5 -27 96.5 -27c14.667 0 28.834 1.5 42.501 4.5s26.334 7.33301 38.001 13s22.334 12.5 32.001 20.5s18 16.833 25 26.5s12.167 19.834 15.5 30.501h132l158 -127z" />
    <glyph glyph-name="uniE601" unicode="&#xe601;" 
d="M211 634l635 -635l-33 -33l-635 635zM846 601l-635 -635l-33 33l635 635z" />
    <glyph glyph-name="uniE60D" unicode="&#xe60d;" 
d="M981 726l0.000976562 -522c0 -31.333 -7.83301 -62.5 -23.5 -93.5s-36.167 -61 -61.5 -90s-54.166 -56.5 -86.499 -82.5s-65.333 -49.167 -99 -69.5s-66.334 -37.333 -98.001 -51s-59.167 -22.834 -82.5 -27.501l-11 -2l-11 2c-24 4.66699 -52.167 13.834 -84.5 27.501
s-65.833 30.667 -100.5 51s-68.834 43.5 -102.501 69.5s-63.5 53.5 -89.5 82.5s-47.167 59 -63.5 90s-24.5 62.167 -24.5 93.5v522l38 5l432 81l440 -81zM513.001 697l-5 1l-337 -57v-299h342v355zM853.001 342h-340v-426c22 4.66699 45.833 12.167 71.5 22.5
s51 22.5 76 36.5s49 29.667 72 47s43.5 35.833 61.5 55.5s32.333 40.167 43 61.5s16 43 16 65v138z" />
    <glyph glyph-name="uniE60E" unicode="&#xe60e;" 
d="M512 812c70.667 0 137 -13.5 199 -40.5s116.167 -63.667 162.5 -110s83 -100.5 110 -162.5s40.5 -128.5 40.5 -199.5s-13.5 -137.333 -40.5 -199s-63.667 -115.667 -110 -162s-100.5 -83 -162.5 -110s-128.333 -40.5 -199 -40.5s-137 13.5 -199 40.5
s-116.167 63.667 -162.5 110s-83 100.333 -110 162s-40.5 128 -40.5 199s13.5 137.5 40.5 199.5s63.667 116.167 110 162.5s100.5 83 162.5 110s128.333 40.5 199 40.5zM545 -54c18.667 0 34.667 6.66699 48 20s20 29.333 20 48c0 19.333 -6.66699 35.833 -20 49.5
s-29.333 20.5 -48 20.5s-34.834 -6.83301 -48.501 -20.5s-20.5 -30.167 -20.5 -49.5c0 -18.667 6.83301 -34.667 20.5 -48s29.834 -20 48.501 -20zM611 224c0 9.33301 6.32715 20.1729 18.9941 32.5059s26.834 27.5 42.501 45.5s29.834 39.167 42.501 63.5
s19 53.166 19 86.499c0 21.333 -4.16699 44 -12.5 68s-21.666 46 -39.999 66s-42.166 36.333 -71.499 49s-64.666 19 -105.999 19c-31.333 0 -58.666 -3.83301 -81.999 -11.5s-42.833 -18 -58.5 -31s-28.5 -27.5 -38.5 -43.5s-17.5 -32.5 -22.5 -49.5
s-8.33301 -33.333 -10 -49s-2.5 -29.5 -2.5 -41.5c0 -16 6.83301 -27.5 20.5 -34.5s28.667 -9.83301 45 -8.5s31.333 6.16602 45 14.499s20.5 19.833 20.5 34.5c0 8.66699 0.666992 18.667 2 30s4.66602 21.833 9.99902 31.5s13.666 17.667 24.999 24s27.333 9.5 48 9.5
c32 0 57.5 -8.83301 76.5 -26.5s28.5 -38.834 28.5 -63.501c0 -12.667 -3 -25.334 -9 -38.001s-13.667 -24.834 -23 -36.501s-19.666 -22.667 -30.999 -33l-31 -28.5c-9.33301 -8.66699 -17.166 -16.5 -23.499 -23.5s-9.5 -12.833 -9.5 -17.5v-74
c0 -6.66699 6.5 -11.5 19.5 -14.5s27.5 -4.33301 43.5 -4s30.667 2.16602 44 5.49902s20 9 20 17v32z" />
    <glyph glyph-name="uniE60F" unicode="&#xe60f;" 
d="M552 691c58 -5.33301 112.335 -20.5029 163.002 -45.5029s94.667 -57.667 132 -98s66.666 -86.666 87.999 -138.999s32 -108.166 32 -167.499c0 -62.667 -12 -121.5 -36 -176.5s-56.5 -103 -97.5 -144s-89.167 -73.333 -144.5 -97s-114 -35.5 -176 -35.5
c-62.667 0 -121.834 11.833 -177.501 35.5s-104 56 -145 97s-73.5 89 -97.5 144s-36 113.833 -36 176.5c0 52 8.16699 101.167 24.5 147.5s39.333 88.5 69 126.5s64.5 70.833 104.5 98.5s84 48.167 132 61.5c-6 16.667 -13 33.167 -21 49.5s-15.833 31 -23.5 44
s-14.5 23.5 -20.5 31.5s-9.66699 12 -11 12c42.667 -7.33301 79 -17.333 109 -30s54.667 -25.5 74 -38.5s33.5 -24.667 42.5 -35s14.167 -16.166 15.5 -17.499zM312.002 464.997c-16 0 -29.167 -4.83301 -39.5 -14.5s-15.5 -21.167 -15.5 -34.5s5.16699 -24.833 15.5 -34.5
s23.5 -14.5 39.5 -14.5c14.667 0 27.334 4.83301 38.001 14.5s16 21.167 16 34.5s-5.33301 24.833 -16 34.5s-23.334 14.5 -38.001 14.5zM357.002 169.997c7.33301 23.333 11.1699 43.666 11.5029 60.999s-5.83398 32.333 -18.501 45l-20 19.5
c-5.33301 5 -10.833 9.83301 -16.5 14.5s-12.167 9.66699 -19.5 15l-29 21l-35 -52l65 -39c7.33301 -4.66699 13.333 -10 18 -16s7.66699 -12.833 9 -20.5s-0.333984 -16.5 -5.00098 -26.5c-4.66699 -9.33301 -13.334 -21.166 -26.001 -35.499
s-25.334 -27.833 -38.001 -40.5c-14.667 -15.333 -31 -31 -49 -47l84 -51l33.5 69.5c7.66699 15.667 13.334 27.667 17.001 36s6.66699 15.5 9 21.5zM813.006 111.997c4.66699 38 7.00195 72.3398 7.00195 103.007s-1 57 -3 79c-2 25.333 -4.66699 47.666 -8 66.999
c-6.66699 20 -22.667 36.333 -48 49c-11.333 4.66699 -25 9 -41 13s-35.333 6.5 -58 7.5s-48.834 0.333008 -78.501 -2s-63.834 -7.16602 -102.501 -14.499c2.66699 6 5.33398 11.333 8.00098 16s4.66699 9 6 13c2.66699 4.66699 4.33398 9 5.00098 13l-76 22
c-6.66699 -20.667 -14.667 -40.334 -24 -59.001c-8 -16 -17.5 -33 -28.5 -51s-23.5 -32.667 -37.5 -44c10 -6 19.333 -10.667 28 -14l19 -10.5c5.33301 -3 8 -4.16699 8 -3.5c8 7.33301 15.333 14.833 22 22.5l19 22.5l18.5 8l18.5 8
c-7.33301 -12.667 -16.5 -27.334 -27.5 -44.001s-22.167 -31.334 -33.5 -44.001l33 -29l12 13l13 14c6 5.33301 12 11.333 18 18h43l3 -61h-124v-35h124v-74h-4h-15c-6.66699 0 -13.5 0.333008 -20.5 1s-13.5 1.66699 -19.5 3s-9.66699 3.33301 -11 6
c-4.66699 6.66699 -6 15.667 -4 27s3.33301 21 4 29h-63l-7 -2c-4 -24 -4 -45.667 0 -65c1.33301 -8 3.66602 -15.833 6.99902 -23.5s8.16602 -14.334 14.499 -20.001s14 -10.334 23 -14.001s20.167 -5.16699 33.5 -4.5c25.333 -0.666992 48 1 68 5s37.667 9 53 15
s28.5 12.5 39.5 19.5s19.833 12.833 26.5 17.5l11 -40l61 25l-39 95h22v35h-108v61h106v35h-191c6.66699 8 13.167 16.5 19.5 25.5s9.83301 15.833 10.5 20.5l-32 8c42 7.33301 79.667 11 113 11c14 0 27.833 -0.666992 41.5 -2s25.834 -4 36.501 -8
s19.167 -9.33301 25.5 -16s9.5 -15 9.5 -25v-216c-1.33301 -13.333 -5 -25 -11 -35c-5.33301 -8.66699 -13.833 -16.334 -25.5 -23.001s-28.167 -9.33398 -49.5 -8.00098l-46 7l-11 -33c38 -11.333 72.333 -16 103 -14c13.333 0 26.333 1.83301 39 5.5
s24.167 9.16699 34.5 16.5s19.166 17.333 26.499 30s12 28.667 14 48zM643.008 145.004c-12 -8.66699 -26.333 -16 -43 -22v66h63l-29 -10z" />
    <glyph glyph-name="uniE610" unicode="&#xe610;" 
d="M829 471h-134.004c-15.333 25.333 -35 46.5 -59 63.5s-50 28.833 -78 35.5l145 184c4 5.33301 5.66699 11.166 5 17.499s-3.5 11.5 -8.5 15.5s-10.833 5.66699 -17.5 5s-12 -3.66699 -16 -9l-159 -201l-159 201c-4 5.33301 -9.33301 8.33301 -16 9s-12.667 -1 -18 -5
c-3.33301 -2.66699 -5.66602 -6 -6.99902 -10s-1.66602 -8 -0.999023 -12s2.33398 -7.66699 5.00098 -11l145 -184c-28 -6.66699 -53.833 -18.5 -77.5 -35.5s-43.167 -38.167 -58.5 -63.5h-125c-26.667 0 -49.167 -9.16699 -67.5 -27.5s-27.5 -40.5 -27.5 -66.5v-426
c0 -26 9.16699 -48.167 27.5 -66.5s40.833 -27.5 67.5 -27.5h13v-1v-34c0 -6.66699 2.33301 -12.334 7 -17.001s10.334 -7 17.001 -7c2.66699 0 5.5 0.666992 8.5 2s5.5 3 7.5 5s3.66699 4.5 5 7.5s2 6.16699 2 9.5v34v1h504v-1v-34c0 -3.33301 0.5 -6.5 1.5 -9.5
s2.66699 -5.5 5 -7.5s5 -3.66699 8 -5s5.83301 -2 8.5 -2c4.66699 0 8.83398 1 12.501 3s6.5 4.83301 8.5 8.5s3 7.83398 3 12.501v34v1h23c26 0 48.167 9.16699 66.5 27.5s27.5 40.5 27.5 66.5v426c0 16.667 -4.16699 32.334 -12.5 47.001s-19.833 26.167 -34.5 34.5
s-30.334 12.5 -47.001 12.5zM506.996 529c24.667 0 48.333 -5 71 -15s42 -24.333 58 -43h-258c8 9.33301 17 17.5 27 24.5s20.5 13 31.5 18s22.5 8.83301 34.5 11.5s24 4 36 4zM875.995 -49c0 -13.333 -4.66602 -24.5 -13.999 -33.5s-20.333 -13.5 -33 -13.5h-634
c-5.33301 0 -10.5 0.833008 -15.5 2.5s-9.33301 3.83398 -13 6.50098s-7 6 -10 10s-5.33301 8.33301 -7 13s-2.5 9.66699 -2.5 15v426c0 8 2.16699 15.667 6.5 23s10.166 13.166 17.499 17.499s15.333 6.5 24 6.5h634c12.667 0 23.667 -4.66699 33 -14s14 -20.333 14 -33
v-426zM696.996 384l-488 0.000976562c-6.66699 0 -12.334 -2.33301 -17.001 -7s-7 -10.334 -7 -17.001v-390c0 -6.66699 2.33301 -12.334 7 -17.001s10.334 -7 17.001 -7h488c6 0 11.333 2.33301 16 7s7 10.334 7 17.001v390c0 3.33301 -0.666992 6.5 -2 9.5s-3 5.5 -5 7.5
s-4.5 3.66699 -7.5 5s-5.83301 2 -8.5 2zM672.996 -5.99902h-441v343h441v-343zM753.996 331.001c0 12 4.16797 22.3359 12.501 31.0029s18.5 13 30.5 13s22.167 -4.33301 30.5 -13s12.5 -18.834 12.5 -30.501s-4.16699 -21.834 -12.5 -30.501s-18.5 -13 -30.5 -13
c-2.66699 0 -5.5 0.333008 -8.5 1s-5.83301 1.5 -8.5 2.5s-5.16699 2.33301 -7.5 4s-4.33301 3.5 -6 5.5s-3.33398 4.16699 -5.00098 6.5s-3 4.66602 -4 6.99902s-1.83301 5 -2.5 8s-1 5.83301 -1 8.5zM820.997 244.004h-45.001c-2.66699 0 -5.16699 -0.333008 -7.5 -1
s-4.5 -1.83398 -6.5 -3.50098s-3.66699 -3.5 -5 -5.5s-2.5 -4.16699 -3.5 -6.5s-1.5 -4.83301 -1.5 -7.5c0 -6 2.33301 -11.333 7 -16s10.334 -7 17.001 -7h45c4 0 7.83301 1 11.5 3s6.5 4.83301 8.5 8.5s3 7.5 3 11.5c0 6.66699 -2.33301 12.334 -7 17.001s-10 7 -16 7z
M820.996 168.004h-45.001c-3.33301 0 -6.5 -0.5 -9.5 -1.5s-5.5 -2.66699 -7.5 -5s-3.66699 -4.83301 -5 -7.5s-2 -5.66699 -2 -9c0 -6.66699 2.33301 -12.334 7 -17.001s10.334 -7 17.001 -7h45c6 0 11.333 2.33301 16 7s7 10.334 7 17.001s-2.33301 12.167 -7 16.5
s-10 6.5 -16 6.5z" />
    <glyph glyph-name="uniE612" unicode="&#xe612;" 
d="M256 460l256 -320l256 320h-512z" />
    <glyph glyph-name="uniE613" unicode="&#xe613;" 
d="M892 -27c-20.667 54 -50.3369 102 -89.0039 144c-38 42 -82 74.667 -132 98l-14 6l-14 6c21.333 12 40.666 27 57.999 45c54 53.333 81 117.666 81 192.999c0 18 -1.83301 35.833 -5.5 53.5s-8.83398 34.667 -15.501 51s-15 32 -25 47s-21.667 28.833 -35 41.5
c-25.333 26 -54.666 45.833 -87.999 59.5s-68.333 20.5 -105 20.5c-75.333 0 -139.666 -26.667 -192.999 -80s-80 -117.666 -80 -192.999s26.667 -139.666 80 -192.999c18 -18 37.667 -33 59 -45l-14.5 -6l-14.5 -6c-49.333 -23.333 -93.333 -56 -132 -98
c-40.667 -45.333 -70 -93.333 -88 -144c-3.33301 -8.66699 -6 -17.5 -8 -26.5s-3.5 -18.167 -4.5 -27.5s-1.66699 -16.666 -2 -21.999s-0.5 -12.333 -0.5 -21v-15h64c-0.666992 37.333 7.5 75.333 24.5 114s39.833 73.667 68.5 105s64.334 57 107.001 77
s87.334 30 134.001 30s91.5 -10.333 134.5 -31s79.333 -46.834 109 -78.501s53.334 -66.667 71.001 -105s26.5 -75.5 26.5 -111.5h64v8c0 10.667 -0.166992 18.667 -0.5 24s-1.16602 12.166 -2.49902 20.499s-3.5 17 -6.5 26zM298.997 465c0 28 5.49805 55 16.498 81
s25.833 48.333 44.5 67s41 33.5 67 44.5s53.167 16.5 81.5 16.5s55.333 -5.5 81 -16.5s47.834 -25.833 66.501 -44.5s33.5 -41 44.5 -67s16.5 -53 16.5 -81c0 -57.333 -20.333 -106.5 -61 -147.5s-90 -61.5 -148 -61.5c-63.333 0 -115.666 24 -156.999 72
c-34 40 -51.333 85.667 -52 137zM298.995 465z" />
    <glyph glyph-name="uniE614" unicode="&#xe614;" 
d="M455.5 7c-63.667 0 -122.668 15.834 -177.001 47.501s-97.333 74.667 -129 129s-47.5 113.333 -47.5 177s15.833 122.667 47.5 177s74.667 97.333 129 129s113.166 47.5 176.499 47.5c48 0 93.833 -9.33301 137.5 -28s81.334 -43.834 113.001 -75.501
s56.834 -69.334 75.501 -113.001s28 -89.5 28 -137.5c0 -63.333 -15.833 -122.166 -47.5 -176.499s-74.667 -97.333 -129 -129s-113.333 -47.5 -177 -47.5zM454.999 627.001c-73.333 0 -136 -26.001 -188 -78.001s-78 -114.833 -78 -188.5s26 -136.5 78 -188.5
s114.833 -78 188.5 -78s136.5 26 188.5 78s78 114.667 78 188c0 48.667 -11.833 93.334 -35.5 134.001s-56 73 -97 97s-85.833 36 -134.5 36zM867.999 -106c-6.66699 0 -13.332 1.33105 -19.999 3.99805s-12.667 6.66699 -18 12l-184 184
c-10.667 10.667 -16 23.334 -16 38.001s5.16699 27.334 15.5 38.001s23 16 38 16s27.833 -5.33301 38.5 -16l184 -185c10.667 -10 16 -22.5 16 -37.5s-5.33301 -27.5 -16 -37.5c-3.33301 -3.33301 -7 -6.33301 -11 -9s-8.33301 -4.5 -13 -5.5s-9.33398 -1.5 -14.001 -1.5z
" />
    <glyph glyph-name="uniE615" unicode="&#xe615;" 
d="M348 812l516 -512l-516 -512h-188l512 512l-512 512h188z" />
    <glyph glyph-name="uniE616" unicode="&#xe616;" 
d="M362 429.5c0 -13.667 -4.83301 -25.334 -14.5 -35.001s-21.334 -14.5 -35.001 -14.5s-25.334 4.83301 -35.001 14.5s-14.5 21.334 -14.5 35.001s4.83301 25.334 14.5 35.001s21.334 14.5 35.001 14.5s25.334 -4.83301 35.001 -14.5s14.5 -21.334 14.5 -35.001zM362 429.5
c0 -13.667 -4.83301 -25.334 -14.5 -35.001s-21.334 -14.5 -35.001 -14.5s-25.334 4.83301 -35.001 14.5s-14.5 21.334 -14.5 35.001s4.83301 25.334 14.5 35.001s21.334 14.5 35.001 14.5s25.334 -4.83301 35.001 -14.5s14.5 -21.334 14.5 -35.001zM797 429
c0 -13.333 -4.83105 -24.8359 -14.498 -34.5029s-21.334 -14.5 -35.001 -14.5s-25.334 4.83301 -35.001 14.5s-14.5 21.334 -14.5 35.001s4.83301 25.334 14.5 35.001s21.167 14.5 34.5 14.5c9.33301 0 17.833 -2.33301 25.5 -7s13.667 -10.667 18 -18
s6.5 -15.666 6.5 -24.999zM852.002 -127.003h-653c-27.333 0 -50.833 9.66699 -70.5 29s-29.5 42.666 -29.5 69.999v508c0 28 9.83301 51.667 29.5 71s43.167 29 70.5 29h653c28 0 51.667 -9.66699 71 -29s29 -43 29 -71v-508c0 -13.333 -2.66699 -26.166 -8 -38.499
s-12.5 -22.833 -21.5 -31.5s-19.5 -15.667 -31.5 -21s-25 -8 -39 -8zM199.002 525.997c-4.66699 0 -9.33301 -0.828125 -14 -2.49512s-8.83398 -3.83398 -12.501 -6.50098s-7 -5.83398 -10 -9.50098s-5.16699 -7.83398 -6.5 -12.501s-2 -9.66699 -2 -15v-508
c0 -12 4.33301 -22.5 13 -31.5s19.334 -13.5 32.001 -13.5h653c12.667 0 23.5 4.5 32.5 13.5s13.5 19.5 13.5 31.5v508c0 6.66699 -1.33301 12.667 -4 18s-6 10.166 -10 14.499s-8.83301 7.66602 -14.5 9.99902s-11.5 3.5 -17.5 3.5h-653zM771.003 435.002l-55 0.000976562
v227c0 4 -0.5 8 -1.5 12s-2.5 7.66699 -4.5 11s-4.33301 6.33301 -7 9s-5.66699 5 -9 7s-7 3.5 -11 4.5s-8 1.5 -12 1.5h-290c-12.667 0 -23.5 -4.33301 -32.5 -13s-13.5 -19.334 -13.5 -32.001v-227h-54v227c0 18 4.5 34.667 13.5 50s21.167 27.5 36.5 36.5
s32 13.5 50 13.5h290c27.333 0 50.833 -9.83301 70.5 -29.5s29.5 -43.167 29.5 -70.5v-227z" />
    <glyph glyph-name="uniE617" unicode="&#xe617;" 
d="M1013 479l-59.5 83.501l-69 98l-59.5 84.5c-6 10 -14.667 15 -26 15h-303h-19h-276c-8.66699 0 -15.667 -3 -21 -9l-1 -1c-1.33301 -1.33301 -2.66602 -3 -3.99902 -5l-80.5 -131l-83.5 -135c-7.33301 -12 -6.33301 -23.667 3 -35c0.666992 0 1.16699 -0.166992 1.5 -0.5
s0.5 -0.833008 0.5 -1.5l232.5 -297l231.5 -296c6.66699 -8.66699 14.334 -12.334 23.001 -11.001c3.33301 0 6.66602 0.833008 9.99902 2.5s6.66602 4.5 9.99902 8.5l153.5 188l177.5 217l154 188l2 4c9.33301 11.333 10.333 22.333 3 33zM929 494.001h-184l20 54.5
l23 62.5l20 55l60.5 -86.5zM501 686.001l41 -59.5l50 -73l41 -59.5h-267zM659 434.001l-54.5 -149l-48 -130.5l-54.5 -148.5l-155 428h312zM690 517.001l-126 183h193l-34.5 -94.5zM314 523.001l-69 177h193zM195 664.001l66 -170h-170zM284 434.001l159 -442l-345 442h186z
M723 434.001l201 0.000976562l-365 -446l28 75.5l26 71.5l28.5 77.5l26.5 71l28 77.5c12.667 35.333 21.667 59.666 27 72.999z" />
    <glyph glyph-name="uniE618" unicode="&#xe618;" 
d="M959 221l-0.00488281 1.99414c-5.33301 22 -19 43 -41 63l-47 358l-3 22l-2 14c-0.666992 7.33301 -3.5 13.5 -8.5 18.5s-11.167 7.83301 -18.5 8.5h-3c-1.33301 0 -2.33301 0.166992 -3 0.5s-1.66699 0.5 -3 0.5h-4h-23c-4 -0.666992 -7.83301 -1.5 -11.5 -2.5
s-7.5 -2.66699 -11.5 -5s-7.33301 -5.16602 -10 -8.49902c-6.66699 -9.33301 -8 -21 -4 -35l13 -45.5c4.66699 -17 8.33398 -31 11.001 -42l11 -46.5l3 -12c5.33301 -19.333 10.333 -39.166 15 -59.499l14 -62l15 -64.5c-20 6 -40.667 9 -62 9
c-25.333 0 -49.5 -2.5 -72.5 -7.5s-44.833 -12.833 -65.5 -23.5s-36.834 -19.667 -48.501 -27s-26.5 -17.666 -44.5 -30.999c-20 -14 -34.667 -23.667 -44 -29c-2.66699 1.33301 -5.5 2.83301 -8.5 4.5s-6.33301 3.66699 -10 6s-7 4.33301 -10 6s-6.5 3.83398 -10.5 6.50098
c-27.333 17.333 -49.666 30.666 -66.999 39.999s-43.5 20 -78.5 32s-70.167 19.667 -105.5 23c-5.33301 0.666992 -11 1 -17 1c-12.667 0 -25 -1.33301 -37 -4c5.33301 22 13.5 53 24.5 93l23.5 87c16.667 62.667 30.334 111 41.001 145
c4.66699 13.333 3.33398 25 -3.99902 35c-8 11.333 -23.333 17 -46 17h-9c-3.33301 0 -7 -0.333008 -11 -1h-2c-7.33301 -0.666992 -13.5 -3.16699 -18.5 -7.5s-7.83301 -9.83301 -8.5 -16.5l-58 -394c-3.33301 -3.33301 -6.5 -7.16602 -9.5 -11.499
s-5.83301 -8.66602 -8.5 -12.999s-5 -8.83301 -7 -13.5s-3.83301 -9.33398 -5.5 -14.001s-3.16699 -9.33398 -4.5 -14.001v-2c-5.33301 -42 -5.33301 -77 0 -105c4 -20 12 -39.667 24 -59c0.666992 -1.33301 1.16699 -4.66602 1.5 -9.99902l1 -16.5
c0.333008 -5.66699 0.5 -9.16699 0.5 -10.5c1.33301 -10 2.66602 -18 3.99902 -24s3.5 -14.167 6.5 -24.5s6.83301 -19.5 11.5 -27.5c8.66699 -16.667 26.5 -29.167 53.5 -37.5s53.833 -12.5 80.5 -12.5h2c18.667 0 49 10.667 91 32
c21.333 10.667 38.166 18.834 50.499 24.501s29.5 11.167 51.5 16.5s43.667 8 65 8c19.333 -0.666992 39.833 -3.66699 61.5 -9s38.834 -10.5 51.501 -15.5l52 -21.5c54.667 -23.333 95 -35 121 -35h1c28.667 0 53.834 4.66699 75.501 14s36.834 19.333 45.501 30
c18.667 22.667 25.334 62.334 20.001 119.001c12 20 20 39.667 24 59c2.66699 12 4 27.167 4 45.5s-0.333008 31.5 -1 39.5s-1.66699 14.667 -3 20zM918.995 123.994c-7.33301 -35.333 -26.667 -65.001 -58 -89.001c-31.333 -22.667 -70.333 -34.334 -117 -35.001
c16 15.333 29.5 32.833 40.5 52.5s18.5 35.334 22.5 47.001s8.66699 26.834 14 45.501l2 10c8 28 6.33301 73 -5 135c28 -5.33301 50.833 -15.833 68.5 -31.5s28.5 -30.5 32.5 -44.5c4.66699 -37.333 4.66699 -67.333 0 -90zM578.994 210.993l40.0029 28.0029
c10 6.66699 23.833 14.667 41.5 24s36 16.333 55 21s39.167 7.66699 60.5 9c11.333 -60.667 14 -103 8 -127l-3 -11l-8 -27.5c-2 -7 -5.66699 -16.667 -11 -29s-10.833 -22.833 -16.5 -31.5s-13.334 -18.334 -23.001 -29.001s-20.834 -20.667 -33.501 -30
c-21.333 7.33301 -41.166 18.666 -59.499 33.999s-33.333 32.666 -45 51.999s-20.834 36 -27.501 50s-12.334 27.667 -17.001 41c8.66699 5.33301 21.667 14 39 26zM741.997 -2.00391v-19v19zM482.997 183.996c-4 -12 -9.00098 -24.666 -15.001 -37.999s-14.333 -29 -25 -47
s-24.167 -34.667 -40.5 -50s-34.166 -27 -53.499 -35c-12.667 1.33301 -28.667 14 -48 38s-34.333 47.667 -45 71c-20 44 -21.333 99 -4 165c26.667 -4.66699 53.667 -12.334 81 -23.001s48 -20 62 -28l55 -33c14.667 -9.33301 25.667 -16 33 -20zM209.996 292.997
c-18 -73.333 -15.002 -135.669 8.99805 -187.002c20 -45.333 42.333 -80.666 67 -105.999h-2h-2v-21v21c-18 0 -34.667 1.5 -50 4.5s-28.666 7.33301 -39.999 13s-21.5 11.834 -30.5 18.501s-16.5 13.834 -22.5 21.501s-11.167 14.834 -15.5 21.501
s-7.83301 13.5 -10.5 20.5s-4.5 12.167 -5.5 15.5s-1.83301 6.33301 -2.5 9c-2.66699 23.333 -3.66699 41.333 -3 54s1.66699 24.667 3 36c6.66699 26 19.667 46.333 39 61l4 2c5.33301 4 11 7.16699 17 9.5s12.833 4.16602 20.5 5.49902s15.834 1.66602 24.501 0.999023z
M247.994 -65.0059c-23.333 0 -44.835 3.16797 -64.502 9.50098s-31.167 12.833 -34.5 19.5c-5.33301 10 -9.66602 23.333 -12.999 40c38.667 -30 87.334 -45 146.001 -45c6 0 12.167 0.166992 18.5 0.5s12.5 1.16602 18.5 2.49902c-7.33301 -3.33301 -13 -6 -17 -8l-14.5 -7
c-5.66699 -2.66699 -10.5 -4.66699 -14.5 -6s-8.16699 -2.5 -12.5 -3.5s-8.5 -1.83301 -12.5 -2.5zM408.992 0.995117c8 6 16 12.835 24 20.502s15.667 16 23 25s14.333 18.833 21 29.5c13.333 20.667 25 43 35 67c4 -10.667 9 -21.834 15 -33.501
s12.333 -22.834 19 -33.501c24 -36.667 51.667 -65 83 -85c-13.333 4.66699 -26 8.66699 -38 12s-25.333 6.33301 -40 9s-29 4 -43 4c-32.667 0.666992 -65.667 -4.33301 -99 -15zM793.992 -65.0029l-1 0.000976562c-20 0 -51.333 9.33301 -94 28
c6.66699 -1.33301 13.667 -2.33301 21 -3s14.666 -1 21.999 -1c62 0 113.333 17.333 154 52c-1.33301 -22.667 -5.66602 -38.334 -12.999 -47.001c-2 -2.66699 -6.16699 -6 -12.5 -10s-16.5 -8.16699 -30.5 -12.5s-29.333 -6.5 -46 -6.5z" />
    <glyph glyph-name="uniE619" unicode="&#xe619;" 
d="M863 -139c-18.667 -1.33301 -47.0107 2.16797 -85.0107 10.501s-66.667 12.166 -86 11.499c-16 -1.33301 -31.833 -7.16602 -47.5 -17.499l-48 -31c-16.333 -10.333 -34.166 -15.5 -53.499 -15.5c-22.667 -0.666992 -48 1 -76 5s-53 9.33301 -75 16
s-35.667 13.667 -41 21c-0.666992 2 -1.33398 4.66699 -2.00098 8s-0.5 6.83301 0.5 10.5s2.83301 6.66699 5.5 9s7.33398 3.16602 14.001 2.49902s14.667 -3.33398 24 -8.00098c0.666992 0 3 -0.833008 7 -2.5s10 -3.66699 18 -6s17 -4.5 27 -6.5s21.833 -3.66699 35.5 -5
s27.167 -2 40.5 -2c26.667 1.33301 53.834 11.5 81.501 30.5s50.5 30.167 68.5 33.5c17.333 4 36.333 4 57 0s41.167 -8.83301 61.5 -14.5s37.5 -7.83398 51.5 -6.50098c8.66699 0.666992 16.834 3 24.501 7s13.834 8.16699 18.501 12.5s9.16699 9.16602 13.5 14.499
s6.83301 8.33301 7.5 9c-2 32.667 -10.833 66 -26.5 100s-34.167 63.333 -55.5 88s-39.166 44 -53.499 58s-25.833 24.333 -34.5 31c-1.33301 0.666992 -7 4.33398 -17 11.001l-27.5 19c-8.33301 6 -18.166 14.833 -29.499 26.5s-20.666 23.834 -27.999 36.501
c-7.33301 -3.33301 -16.333 -6.83301 -27 -10.5s-21.834 -6.83398 -33.501 -9.50098s-24 -4.83398 -37 -6.50098s-24.833 -2.5 -35.5 -2.5c-20 0 -41.333 2.66699 -64 8s-42.667 12 -60 20c-3.33301 -8 -7.66602 -15.5 -12.999 -22.5s-12.333 -14.667 -21 -23
s-16.667 -15.166 -24 -20.499l-31 -26c-14 -10.667 -29.833 -25.5 -47.5 -44.5s-36 -41.167 -55 -66.5s-35.167 -52.833 -48.5 -82.5s-20 -56.834 -20 -81.501c0.666992 -4 3.16699 -8.33301 7.5 -13s11.333 -8.66699 21 -12s21.5 -3 35.5 1
c14 -3.33301 20.667 -10.666 20 -21.999s-7.33398 -18 -20.001 -20c-28 -4.66699 -52.833 -1.66699 -74.5 9s-32.5 21.667 -32.5 33c0 16 1.33301 32 4 48s6 30.667 10 44s9.33301 27.333 16 42s12.834 27.334 18.501 38.001s13.167 22.5 22.5 35.5s16.833 23 22.5 30
s13.5 16.167 23.5 27.5s16.833 18.833 20.5 22.5l19.5 19.5l14 13c6 6.66699 16.833 16.334 32.5 29.001s28 23.334 37 32.001s17.5 21 25.5 37s12 33.333 12 52c0 19.333 -14.333 69.833 -43 151.5s-43 137.834 -43 168.501l37 11c25.333 6.66699 50.333 13.667 75 21
l38 10c1.33301 -2 3.33301 -5.33301 6 -10c6.66699 -12.667 12 -22.167 16 -28.5s9.33301 -13.666 16 -21.999s13.834 -14.5 21.501 -18.5s16.167 -6 25.5 -6c6 0 11.5 0.666992 16.5 2s10.167 4 15.5 8s9.5 7.33301 12.5 10s7.16699 7.66699 12.5 15l11 15
c2 2.66699 5.83301 8.66699 11.5 18s9.16699 15 10.5 17l145 -42c0 -16.667 -2.16699 -35.334 -6.5 -56.001s-9.66602 -40.667 -15.999 -60l-20.5 -60.5l-20.5 -57c-6.33301 -17 -11.666 -33.333 -15.999 -49s-6.5 -28.167 -6.5 -37.5c0 -14 2.83301 -27.333 8.5 -40
s13.834 -24.334 24.501 -35.001s20.667 -19.834 30 -27.501s21 -16.334 35 -26.001s24 -16.834 30 -21.501c12 -9.33301 24 -19.5 36 -30.5s26.5 -27.167 43.5 -48.5s31.833 -43.166 44.5 -65.499s23.667 -49.166 33 -80.499s14 -63 14 -95
c0 -11.333 -9.33301 -24.333 -28 -39s-37.667 -23 -57 -25zM691.989 693.001c0 1.33301 -6.33008 3.50098 -18.9971 6.50098l-43 10.5l-23 5c-2.66699 -6 -5.16699 -11 -7.5 -15l-8 -14c-3 -5.33301 -5.66699 -9.83301 -8 -13.5s-5.33301 -7.5 -9 -11.5
s-7.33398 -7.5 -11.001 -10.5s-7.83398 -6 -12.501 -9s-9.5 -5.33301 -14.5 -7s-10.667 -3 -17 -4s-12.833 -1.5 -19.5 -1.5c-15.333 0 -28.833 2.33301 -40.5 7s-21.834 12 -30.501 22s-15.167 18.5 -19.5 25.5s-9.83301 17.5 -16.5 31.5
c-1.33301 1.33301 -15.666 -1.66699 -42.999 -9s-41.333 -11.666 -42 -12.999c0 -16 14.167 -64.833 42.5 -146.5s42.5 -125.167 42.5 -130.5c0 -24.667 -1.33301 -45.334 -4 -62.001c0 -0.666992 0.5 -1.16699 1.5 -1.5s1.83301 -0.5 2.5 -0.5
c14 -6.66699 28.833 -11.667 44.5 -15s36.5 -5.33301 62.5 -6c42 -1.33301 77.667 5.66699 107 21c1.33301 0.666992 2.83301 1.33398 4.5 2.00098s3.16699 1 4.5 1c-2.66699 9.33301 -4.83398 19.166 -6.50098 29.499s-2.5 20.833 -2.5 31.5
c0 5.33301 14.167 48.666 42.5 129.999s42.5 130.333 42.5 147z" />
    <glyph glyph-name="uniE61A" unicode="&#xe61a;" 
d="M608 492c-8.66699 0 -16.168 -3.16699 -22.501 -9.5s-9.5 -13.833 -9.5 -22.5c0 -5.33301 1.5 -10.5 4.5 -15.5s6.83301 -9 11.5 -12s10 -4.5 16 -4.5h64c2.66699 0 5.16699 0.333008 7.5 1s4.5 1.5 6.5 2.5s3.83301 2.16699 5.5 3.5s3.33398 3 5.00098 5s3 4 4 6
s1.83301 4.16699 2.5 6.5s1 4.83301 1 7.5c0 8.66699 -3.16699 16.167 -9.5 22.5s-13.833 9.5 -22.5 9.5h-64zM1023 592c-0.666992 8 -4.33203 14.002 -10.999 18.002l-323 196c-3.33301 1.33301 -7 2.33301 -11 3h-38c0 -11.333 -5.83301 -21.833 -17.5 -31.5
s-27.167 -17.334 -46.5 -23.001s-40.666 -8.5 -63.999 -8.5c-34.667 0 -64.334 6.16699 -89.001 18.5s-37.334 27.166 -38.001 44.499h-38c-2 0 -3.83301 -0.333008 -5.5 -1s-3.5 -1.33398 -5.5 -2.00098l-323 -196c-6.66699 -4 -10.334 -10 -11.001 -18
c-0.666992 -2 -1 -4 -1 -6v-64c0 -6 2 -11.333 6 -16c1.33301 -2.66699 3 -4.83398 5 -6.50098s4 -3.5 6 -5.5l174 -112v-561c0 -8.66699 3.16699 -16.167 9.5 -22.5s13.833 -9.5 22.5 -9.5h1h1h573h1v0h1c5.33301 0 10.5 1.33301 15.5 4s9 6.5 12 11.5s4.5 10.5 4.5 16.5
v559l173 114c2.66699 1.33301 4.83398 3 6.50098 5s3.16699 4 4.5 6c2.66699 2.66699 4.5 5.33398 5.5 8.00098s1.5 5.66699 1.5 9v64v4c0 0.666992 -0.333008 1.33398 -1 2.00098zM960.001 540.002l-177.002 -116c-4 -2.66699 -7.33301 -6 -10 -10
s-4.33398 -8.16699 -5.00098 -12.5s-0.666992 -8.83301 0 -13.5v-535h-511v538c4 15.333 -1 27 -15 35l-177 114v27l283 170c4 -4 8.66699 -8.16699 14 -12.5s11.333 -8.16602 18 -11.499s13.834 -6.5 21.501 -9.5s15.834 -5.83301 24.501 -8.5s17.5 -4.83398 26.5 -6.50098
s18.667 -2.83398 29 -3.50098s20.666 -1 30.999 -1s20.5 0.333008 30.5 1s19.667 1.83398 29 3.50098s18.333 3.83398 27 6.50098s16.834 5.5 24.501 8.5s14.834 6.16699 21.501 9.5s12.667 7.16602 18 11.499s10 8.5 14 12.5l283 -170v-27z" />
    <glyph glyph-name="uniE61B" unicode="&#xe61b;" 
d="M1003 108l-405.999 177.998l-360 355c-5.33301 5.33301 -11.666 8 -18.999 8h-186c-5.33301 0 -10 -1.33301 -14 -4s-7.33301 -6.16699 -10 -10.5s-4 -9.16602 -4 -14.499v-640c0 -8 2.66699 -14.833 8 -20.5s12 -8.5 20 -8.5h106c7.33301 0 13.666 2.83301 18.999 8.5
s8 12.5 8 20.5v2v352l137 -103l184 -268c5.33301 -8 13 -12 23 -12l483 1c4 0 7.66699 0.666992 11 2s6.16602 3.33301 8.49902 6s4.33301 5.83398 6 9.50098s2.5 7.16699 2.5 10.5v101c0 13.333 -5.66699 22.333 -17 27zM965.001 8.99805l-442.001 0.000976562l-179 260
c-0.666992 0.666992 -1.5 1.66699 -2.5 3s-2.16699 2.33301 -3.5 3l-185 139c-2 1.33301 -4.16699 2.5 -6.5 3.5s-4.83301 1.66699 -7.5 2s-5.16699 0.166016 -7.5 -0.500977s-4.83301 -1.66699 -7.5 -3s-5.16699 -3.33301 -7.5 -6s-4 -5.66699 -5 -9s-1.5 -7 -1.5 -11v-381
h-51v582h148l356 -350c2.66699 -2.66699 5.33398 -4.66699 8.00098 -6l394 -173v-53z" />
    <glyph glyph-name="uniE61C" unicode="&#xe61c;" 
d="M524 370c1.33301 2 1.99805 3.66602 1.99805 4.99902v14c0 2 0.333008 4.16699 1 6.5s1.66699 4.66602 3 6.99902s3 4.5 5 6.5s4.5 4.16699 7.5 6.5s5.83301 4.33301 8.5 6s6.33398 4.16699 11.001 7.5c29.333 19.333 50 37.666 62 54.999
c12.667 18 19.667 40.167 21 66.5s-3.66699 50.166 -15 71.499c-21.333 42 -59 63.333 -113 64c-42.667 0 -75 -13 -97 -39c-8 -9.33301 -14.5 -20.166 -19.5 -32.499s-8.33301 -23.666 -10 -33.999s-2.5 -21 -2.5 -32s0.166992 -18.667 0.5 -23
s0.833008 -7.83301 1.5 -10.5c0.666992 -3.33301 2.5 -6.16602 5.5 -8.49902s6.5 -3.16602 10.5 -2.49902s7 2.5 9 5.5s2.66699 6.5 2 10.5c-0.666992 4.66699 -1.33398 11.5 -2.00098 20.5s1 23 5 42s11 34.5 21 46.5c16.667 20 42 29.667 76 29
c8.66699 0 16.667 -0.666992 24 -2s14 -3.33301 20 -6s11.333 -5.5 16 -8.5s8.83398 -6.33301 12.501 -10s6.83398 -7.33398 9.50098 -11.001s5 -7.5 7 -11.5c6 -12 9.66699 -25.167 11 -39.5s0.5 -27.5 -2.5 -39.5s-7.16699 -22 -12.5 -30
c-10.667 -14.667 -29 -30.667 -55 -48l-11 -8l-9.5 -6.5c-4.33301 -3 -7.5 -5.5 -9.5 -7.5s-4.5 -4.83301 -7.5 -8.5s-5.16699 -7 -6.5 -10s-2.5 -6.5 -3.5 -10.5s-1.5 -8 -1.5 -12v-14c0 -1.33301 0.333008 -2.66602 1 -3.99902l-442 -309v-120h908v120zM787.998 151.999
h-554l277 193zM936.998 -30.001h-852v78l109 76h634l109 -76v-78z" />
    <glyph glyph-name="uniE61D" unicode="&#xe61d;" 
d="M749 607c28.667 2 56.667 -0.499023 84 -7.49902s51.833 -15.833 73.5 -26.5s39.167 -22 52.5 -34s20 -22 20 -30s-5.16699 -13 -15.5 -15s-23.166 -3.66699 -38.499 -5s-32.166 -3.83301 -50.499 -7.5s-35.833 -11.834 -52.5 -24.501
c-10.667 -8.66699 -21 -17.834 -31 -27.501l-30 -28.5c-10 -9.33301 -20.167 -18 -30.5 -26s-21.833 -14 -34.5 -18c-6 -2 -13.5 -4 -22.5 -6s-18.333 -2.5 -28 -1.5s-19.834 4.33301 -30.501 10s-20.667 14.834 -30 27.501c-6.66699 -8 -12.167 -17.667 -16.5 -29
s-8.16602 -23.5 -11.499 -36.5s-6.16602 -26.5 -8.49902 -40.5s-4.16602 -27 -5.49902 -39c-1.33301 -10.667 -2.33301 -23.667 -3 -39s-0.833984 -30.5 -0.500977 -45.5s1.16602 -28.833 2.49902 -41.5s3.33301 -21.667 6 -27c3.33301 -6 5 -11 5 -15
c0 -3.33301 -1.66699 -6.66602 -5 -9.99902s-10 -5 -20 -5c-10.667 0 -17.834 1.66699 -21.501 5s-5.5 6.66602 -5.5 9.99902c-0.666992 4 0.666016 8.66699 3.99902 14c3.33301 6.66699 5.5 14.667 6.5 24s1.33301 19.333 1 30s-0.833008 21.334 -1.5 32.001
s-1 21.334 -1 32.001c-10.667 22 -21.167 40.5 -31.5 55.5s-21.833 29.167 -34.5 42.5c-7.33301 -16 -16 -28.167 -26 -36.5s-20 -14 -30 -17s-19.667 -4.33301 -29 -4s-17.333 1.16602 -24 2.49902c-12.667 2 -24.334 5.83301 -35.001 11.5s-21.5 12.167 -32.5 19.5
l-33.5 23c-11.333 8 -22.666 15.333 -33.999 22c-18 10 -36.333 15.333 -55 16s-35.667 0.166992 -51 -1.5s-28 -2.33398 -38 -2.00098s-15 5 -15 14s5.66699 20.167 17 33.5s26.333 26.666 45 39.999s40.667 25.333 66 36s52 17.334 80 20.001
c42.667 4 78.167 1.83301 106.5 -6.5s50.5 -20.333 66.5 -36s26.167 -33.834 30.5 -54.501s3.83301 -41 -1.5 -61c21.333 -20 42.666 -45.333 63.999 -76c3.33301 33.333 12 67 26 101c5.33301 12 10.333 22 15 30s10.334 16.667 17.001 26
c-10.667 20 -16.167 41.333 -16.5 64s6.16699 43.834 19.5 63.501s34 36.5 62 50.5s65 22.333 111 25zM443 326.001c-38 32.667 -78.1709 53.666 -120.504 62.999s-86.166 8.33301 -131.499 -3c-1.33301 0 -1.66602 -0.166992 -0.999023 -0.5s2 -0.5 4 -0.5
c19.333 2 39.333 2.83301 60 2.5s41.334 -3.33301 62.001 -9s41.334 -14.167 62.001 -25.5s40.667 -26.666 60 -45.999zM818.996 520c1.33301 0 2.33398 0.166016 3.00098 0.499023s0 0.5 -2 0.5c-50 4.66699 -95 -3 -135 -23s-75.333 -49.333 -106 -88l10 -18
c18 25.333 36.833 46.166 56.5 62.499s39.5 29.333 59.5 39s39.667 16.334 59 20.001s37.666 5.83398 54.999 6.50098zM284.997 -3.00098c-6 4.66699 -4.50098 10.3311 4.49902 16.998s22 13.334 39 20.001s36.333 13.667 58 21s42.5 13.666 62.5 18.999
c8.66699 2.66699 15.5 2.5 20.5 -0.5s9.66699 -7 14 -12s9.83301 -9.66699 16.5 -14s16.167 -6.5 28.5 -6.5s21.666 2.16699 27.999 6.5s12 8.83301 17 13.5s9.83301 8.5 14.5 11.5s11.334 3.5 20.001 1.5c20 -5.33301 40.833 -11.833 62.5 -19.5
s41.334 -15.167 59.001 -22.5s30.834 -14.166 39.501 -20.499s9.66699 -11.166 3 -14.499c-16 -8.66699 -37.833 -16 -65.5 -22s-57.834 -10.333 -90.501 -13s-66.167 -4 -100.5 -4s-66.833 1.5 -97.5 4.5s-58 7.5 -82 13.5s-41 13 -51 21z" />
    <glyph glyph-name="uniE61E" unicode="&#xe61e;" 
d="M143 331v-397c0 -22.667 8 -42 24 -58s35.333 -24 58 -24h575c12 0 23.167 2.5 33.5 7.5s19.333 11.833 27 20.5s13.5 18.334 17.5 29.001h3v422c0 20 -6.5 37.667 -19.5 53s-29.5 24.333 -49.5 27c17.333 22 26 47 26 75v9c0 34 -12 63 -36 87s-53 36 -87 36h-131
c-2.66699 0 -4 1.33301 -4 4v53c0 12.667 -3.16699 24.667 -9.5 36s-15.166 20.166 -26.499 26.499s-23.333 9.5 -36 9.5c-20 0 -37.167 -7.16699 -51.5 -21.5s-21.5 -31.166 -21.5 -50.499v-53c0 -1.33301 -0.333008 -2.33301 -1 -3s-1.33398 -1 -2.00098 -1h-131
c-22.667 0 -43.5 -5.5 -62.5 -16.5s-34 -26 -45 -45s-16.5 -39.5 -16.5 -61.5v-9c0 -14 2.5 -27.5 7.5 -40.5s11.5 -25.167 19.5 -36.5c-17.333 -4 -31.833 -13.333 -43.5 -28s-17.5 -31.334 -17.5 -50.001zM301 569l130.998 -0.000976562c14.667 0 27 5.16699 37 15.5
s15 22.833 15 37.5v53c0 6 2.33301 11.333 7 16s10.334 7 17.001 7c4 0 7.83301 -1 11.5 -3s6.5 -4.83301 8.5 -8.5s3 -7.5 3 -11.5v-53c0 -14.667 5.16699 -27.167 15.5 -37.5s22.833 -15.5 37.5 -15.5h131c20 0 37.333 -7.16699 52 -21.5s22 -31.833 22 -52.5v-9
c0 -19.333 -6.83301 -36.166 -20.5 -50.499s-30.5 -22.166 -50.5 -23.499h-421c-20 1.33301 -36.833 9.16602 -50.5 23.499s-20.5 31.5 -20.5 51.5v8c0 20.667 7.33301 38.167 22 52.5s32.334 21.5 53.001 21.5zM300.998 362.999l413.997 -0.000976562h1h2h82
c8.66699 0 16.334 -3.16699 23.001 -9.5s10 -13.833 10 -22.5l-1 -397c0 -3.33301 -0.333008 -6.33301 -1 -9s-1.66699 -5.16699 -3 -7.5s-3 -4.5 -5 -6.5s-4.16699 -3.66699 -6.5 -5s-5 -2.5 -8 -3.5s-5.83301 -1.5 -8.5 -1.5h-575c-9.33301 0 -17.166 3.16699 -23.499 9.5
s-9.5 14.166 -9.5 23.499v397c0 2.66699 0.333008 5.33398 1 8.00098s1.83398 5.33398 3.50098 8.00098s3.5 5 5.5 7s4.16699 3.66699 6.5 5s4.83301 2.33301 7.5 3s5.66699 1 9 1h72h2h2zM247.995 215.998l159.003 -0.000976562c5.33301 0 9.66602 1.83301 12.999 5.5
s5 7.83398 5 12.501c0 3.33301 -0.833008 6.5 -2.5 9.5s-3.83398 5.33301 -6.50098 7s-5.66699 2.5 -9 2.5h-159c-2.66699 0 -5.16699 -0.5 -7.5 -1.5s-4.33301 -2.33301 -6 -4s-2.83398 -3.66699 -3.50098 -6s-1 -4.83301 -1 -7.5c2 -10 8 -16 18 -18zM247.998 3.99707h159
c5.33301 0 9.66602 1.83301 12.999 5.5s5 7.83398 5 12.501c0 2 -0.333008 4 -1 6s-1.5 3.66699 -2.5 5s-2.16699 2.66602 -3.5 3.99902s-3 2.16602 -5 2.49902s-4 0.5 -6 0.5h-159c-2 0 -4 -0.166992 -6 -0.5s-3.66699 -1.16602 -5 -2.49902l-4 -4
c-1.33301 -1.33301 -2.16602 -3 -2.49902 -5s-0.5 -4 -0.5 -6c0 -12 6 -18 18 -18zM247.998 109.997h269c4.66699 0 8.83398 1.83301 12.501 5.5s5.5 8 5.5 13s-1.83301 9.33301 -5.5 13s-7.83398 5.5 -12.501 5.5h-269c-3.33301 0 -6.5 -0.833008 -9.5 -2.5
s-5.16699 -4 -6.5 -7s-2 -6.16699 -2 -9.5c2 -10 8 -16 18 -18z" />
    <glyph glyph-name="uniE61F" unicode="&#xe61f;" 
d="M313 -149l399 -0.00195312c23.333 0 44.833 5.83301 64.5 17.5s35.167 27.334 46.5 47.001s17 41.167 17 64.5v639c0 14 -2.16699 27.5 -6.5 40.5s-10.333 24.833 -18 35.5s-16.834 20 -27.501 28s-22.5 14.167 -35.5 18.5s-26.5 6.5 -40.5 6.5h-399
c-35.333 0 -65.666 -12.667 -90.999 -38s-38 -55.666 -38 -90.999v-639c0 -43.333 18 -78 54 -104c22.667 -16 47.667 -24.333 75 -25zM313 698.998l399.001 0.000976562c14 0 27.167 -3.66699 39.5 -11s22 -17 29 -29s10.5 -25.333 10.5 -40v-639
c0 -10.667 -2.16699 -20.834 -6.5 -30.501s-10 -18.167 -17 -25.5s-15.333 -13 -25 -17s-19.834 -6 -30.501 -6h-399c-22 0 -40.667 7.66699 -56 23s-23 34 -23 56v639c0 14.667 3.5 28 10.5 40s16.5 21.667 28.5 29s25.333 11 40 11zM398.001 647.999h228v-28h-228v28z
M740.001 561.999h-456v-499h456v499zM703.001 99.999h-382v425h382v-425zM512.001 20.999c-7.33301 0 -14.167 -1.83398 -20.5 -5.50098s-11.333 -8.66699 -15 -15s-5.5 -13.166 -5.5 -20.499c0 -12 4 -22 12 -30s17.667 -12 29 -12c8 0 15.167 1.83301 21.5 5.5
s11.333 8.66699 15 15s5.5 13.5 5.5 21.5c0 11.333 -4 21 -12 29s-18 12 -30 12z" />
    <glyph glyph-name="uniE620" unicode="&#xe620;" horiz-adv-x="1030" 
d="M931 262l-576 0.00195312c-13.333 0 -20 6.33301 -20 19c6.66699 12.667 15.334 19 26.001 19h550l32 122h-6h-557c-3.33301 -2 -6.16602 -2.66699 -8.49902 -2s-4.33301 2 -6 4s-2.83398 4.5 -3.50098 7.5s-1 6.16699 -1 9.5c0 12.667 6.33301 19 19 19h557
c8.66699 0 13 -2 13 -6l32 128h-621c-12.667 0 -19 6.33301 -19 19c0 10 5.33301 16.333 16 19h3h627h7c1.33301 0 3.16602 0.5 5.49902 1.5s4.66602 1.5 6.99902 1.5s4.5 -1 6.5 -3c4 0 7.33301 -1.33301 10 -4s4.16699 -5.83398 4.5 -9.50098
s-0.166992 -7.83398 -1.5 -12.501l-84 -300c2.66699 -2.66699 4.33398 -4.5 5.00098 -5.5s1.16699 -2 1.5 -3s0.5 -2.5 0.5 -4.5c0 -12.667 -6.33301 -19 -19 -19zM777 -38.998c0 28 9.66895 50.999 29.002 68.999s43.666 27 72.999 27c28 0 51 -9.5 69 -28.5
s27 -41.5 27 -67.5c0 -28.667 -9.5 -53 -28.5 -73s-41.5 -30 -67.5 -30c-15.333 2 -29.5 6 -42.5 12s-23.833 13.667 -32.5 23s-15.334 19.833 -20.001 31.5s-7 23.834 -7 36.501zM873.002 25.001c-16 0 -29.6689 -5.66309 -41.002 -16.9961s-17 -25 -17 -41
c0 -10.667 2.66699 -20.334 8 -29.001s12.333 -15.5 21 -20.5s18.334 -7.5 29.001 -7.5c16 0 29.667 5.5 41 16.5s17 24.5 17 40.5c0 3.33301 -0.333008 6.83301 -1 10.5s-1.66699 7 -3 10s-2.83301 6 -4.5 9s-3.5 5.66699 -5.5 8s-4.33301 4.66602 -7 6.99902
s-5.33398 4.16602 -8.00098 5.49902s-5.66699 2.66602 -9 3.99902s-6.66602 2.33301 -9.99902 3s-6.66602 1 -9.99902 1zM438 -96.9951c16 0 29.5 5.66797 40.5 17.001s16.5 25 16.5 41s-5.5 29.5 -16.5 40.5s-24.5 16.5 -40.5 16.5s-29.667 -5.5 -41 -16.5
s-17 -24.5 -17 -40.5c0 -10.667 2.5 -20.334 7.5 -29.001s12 -15.667 21 -21s18.833 -8 29.5 -8zM534 -38.9941c0 -28.667 -9.50195 -52.999 -28.502 -72.999s-41.5 -30 -67.5 -30s-48.5 10 -67.5 30s-28.5 44.333 -28.5 73c0 28 9.33301 51 28 69s41.334 27 68.001 27
c16.667 0 32.334 -4 47.001 -12s26.5 -19.333 35.5 -34s13.5 -31.334 13.5 -50.001zM930.998 102.007h-576.001c-13.333 0 -20 6.33301 -20 19v6l-153 570h-7h-153c-12.667 0 -19 6.33301 -19 19s6.33301 19 19 19h160c1.33301 0 2.83301 -0.333008 4.5 -1
s2.83398 -1.66699 3.50098 -3l4 -4c0.666992 -1.33301 1 -3 1 -5c4.66699 0 8.16699 -0.166992 10.5 -0.5s4.83301 -1.33301 7.5 -3s5 -4.5 7 -8.5l154 -570h557c12.667 0 19 -6.33301 19 -19s-6.33301 -19 -19 -19z" />
    <glyph glyph-name="uniE621" unicode="&#xe621;" 
d="M845 599l1.00195 0.00292969v1c-12 12.667 -24.333 24.667 -37 36v-1c-16 14 -32.833 26.833 -50.5 38.5s-36.167 22.167 -55.5 31.5s-39.333 17.166 -60 23.499s-42 11.166 -64 14.499s-44.333 5 -67 5c-34.667 0 -68.834 -4 -102.501 -12s-65.167 -19.333 -94.5 -34
s-57 -32.167 -83 -52.5s-49.167 -43.5 -69.5 -69.5s-37.833 -53.667 -52.5 -83s-25.834 -60.833 -33.501 -94.5s-11.5 -67.834 -11.5 -102.501c0 -60.667 11.667 -118.667 35 -174s55 -103 95 -143s87.667 -71.833 143 -95.5s113.333 -35.5 174 -35.5
s118.667 11.833 174 35.5s103 55.5 143 95.5s71.667 87.667 95 143s35 113.333 35 174c0 38 -4.5 75 -13.5 111s-22 69.667 -39 101s-37.5 60.333 -61.5 87zM905.002 355.003c-27.333 -1.33301 -54.835 -4.16797 -82.502 -8.50098s-58.167 -10.166 -91.5 -17.499
c-7.33301 -2 -14.666 -3.83301 -21.999 -5.5s-14.666 -3.5 -21.999 -5.5s-14.666 -4.33301 -21.999 -7l-14.5 38l-15.5 38l-16 38c-0.666992 0.666992 -1.33398 1.66699 -2.00098 3l-1 2c92.667 36 159 78 199 126c49.333 -58.667 79.333 -125.667 90 -201zM514 696.001
c102 0 190.998 -34.667 266.998 -104c-20.667 -26.667 -45 -50.167 -73 -70.5s-64 -38.833 -108 -55.5c-21.333 45.333 -42.166 86.833 -62.499 124.5s-40.833 72.167 -61.5 103.5c12.667 1.33301 25.334 2 38.001 2zM427.998 687.001
c48.667 -70.667 92.3301 -149.001 130.997 -235.001c-31.333 -10 -64.166 -18.333 -98.499 -25s-69.166 -11 -104.499 -13c-39.333 -2.66699 -76.833 -3 -112.5 -1s-70.5 6.33301 -104.5 13c14 43.333 35.167 82.833 63.5 118.5s61.833 65.834 100.5 90.501
s80.334 42 125.001 52zM118.994 302c0 6 0.168945 12.3379 0.501953 19.0049s0.833008 13.167 1.5 19.5s1.5 12.666 2.5 18.999s2.16699 12.833 3.5 19.5c69.333 -10.667 140.666 -13.334 213.999 -8.00098c44.667 2.66699 86.5 7.33398 125.5 14.001
s75.167 15.334 108.5 26.001c0.666992 -2 1.66699 -4.33301 3 -7s2.33301 -4.83398 3 -6.50098s1.66699 -3.83398 3 -6.50098s2.33301 -5 3 -7l33 -87c-91.333 -32.667 -162.833 -68.834 -214.5 -108.501s-103.834 -99.5 -156.501 -179.5
c-40.667 37.333 -72.5 81.166 -95.5 131.499s-34.5 104.166 -34.5 161.499zM295.996 -27.9951c20 59.333 59.834 113.999 119.501 163.999s132.5 90.667 218.5 122c41.333 -112.667 70.666 -210 87.999 -292c-64 -39.333 -133.333 -59 -208 -59
c-80 0.666992 -152.667 22.334 -218 65.001zM758.997 -6.99609c-18 91.333 -44.335 185.001 -79.002 281.001c8.66699 2 17.334 4.33301 26.001 7s17.334 5 26.001 7c64 15.333 122.667 22.666 176 21.999v-2v-4v-2c0 -61.333 -13.167 -119 -39.5 -173
s-62.833 -99.333 -109.5 -136z" />
    <glyph glyph-name="uniE622" unicode="&#xe622;" 
d="M941 30c-31.333 28.667 -73.667 54.332 -127 76.999c-60 26 -120 45 -180 57l-21 4l-100 -151l-101 150l-20 -3c-60.667 -10.667 -120.667 -28.667 -180 -54c-54 -22 -96.667 -47.667 -128 -77c-43.333 -39.333 -65 -83 -65 -131c0 -32 4.66699 -61.667 14 -89l7 -22h944
l7 21c10 27.333 15 57.333 15 90c0 46.667 -21.667 89.334 -65 128.001zM936.999 -145.002h-848.999c-1.33301 7.33301 -2.5 14.833 -3.5 22.5s-1.5 15.834 -1.5 24.501c0 29.333 14.667 57.333 44 84c12.667 12 28.167 23.333 46.5 34s39.166 21 62.499 31
c44 18.667 93 34 147 46l130 -195l129 194c21.333 -4.66699 44.833 -11 70.5 -19s51.167 -17.667 76.5 -29c102 -44 153 -92.667 153 -146c0 -16.667 -1.66699 -32.334 -5 -47.001zM236 406.998l0.00390625 0.998047h47c6.66699 -65.333 31.834 -120 75.501 -164
s95.167 -66 154.5 -66c54 0 102.333 19 145 57h-145c-48 0 -88.833 19.833 -122.5 59.5s-50.5 87.334 -50.5 143.001s16.833 103.167 50.5 142.5s74.5 59 122.5 59c28 0 54.5 -7.5 79.5 -22.5s45.5 -35.667 61.5 -62s26 -55.833 30 -88.5h58
c-6.66699 65.333 -31.834 120.166 -75.501 164.499s-94.834 66.5 -153.501 66.5c-39.333 0 -75.833 -10.167 -109.5 -30.5s-61.167 -48.333 -82.5 -84s-34 -74.834 -38 -117.501h-59c-6 51.333 4.16699 99.333 30.5 144s62.666 79.834 108.999 105.501
s96.166 38.5 149.499 38.5c69.333 0 130.666 -22.333 183.999 -67s86 -99 98 -163c2.66699 -14 4.33398 -28.333 5.00098 -43c-2 -29.333 -12.5 -54 -31.5 -74s-42.833 -34.333 -71.5 -43s-61.334 -13 -98.001 -13c-30 0 -58.667 5 -86 15v-63
c27.333 -6.66699 56 -10 86 -10c60 0 112.333 10.5 157 31.5s74 48.833 88 83.5h2c4 14 7.16699 28.333 9.5 43s3.5 29.334 3.5 44.001c0 57.333 -15.5 110.333 -46.5 159s-73 87.167 -126 115.5s-110.833 42.5 -173.5 42.5c-47.333 0 -92.333 -8.33301 -135 -25
s-79.5 -39.167 -110.5 -67.5s-55.5 -62.166 -73.5 -101.499s-27 -80.333 -27 -123c0 -36 2 -65 6 -87h63z" />
    <glyph glyph-name="uniE623" unicode="&#xe623;" 
d="M509 113c8 0 14.833 2.83301 20.5 8.5s8.5 12.5 8.5 20.5v6l-2 4c0 2 -0.666992 3.66699 -2 5l-2 4c-1.33301 1.33301 -2.66602 2.5 -3.99902 3.5s-2.83301 2 -4.5 3s-3.16699 1.83301 -4.5 2.5s-3 1.16699 -5 1.5s-3.66699 0.5 -5 0.5c-8 0 -15 -3 -21 -9s-9 -13 -9 -21
c0 -14 6.66699 -23.333 20 -28c3.33301 -0.666992 6.66602 -1 9.99902 -1zM509 -6c3.33301 0 6.5 0.500977 9.5 1.50098s5.66699 2.5 8 4.5s4.33301 4.16699 6 6.5s3 5 4 8s1.5 6.16699 1.5 9.5c0 5.33301 -1.33301 10.166 -4 14.499s-6.16699 7.83301 -10.5 10.5
s-9.16602 4 -14.499 4c-8 0 -15 -2.83301 -21 -8.5s-9 -12.5 -9 -20.5c0 -14 6.66699 -23.333 20 -28c3.33301 -1.33301 6.66602 -2 9.99902 -2zM509 -123.999c4 0 7.83301 0.831055 11.5 2.49805s6.83398 3.83398 9.50098 6.50098s4.66699 5.83398 6 9.50098s2 7.5 2 11.5
c0 8 -2.83301 14.833 -8.5 20.5s-12.5 8.5 -20.5 8.5s-15 -2.83301 -21 -8.5s-9 -12.5 -9 -20.5c0 -14.667 6.66699 -24 20 -28c3.33301 -1.33301 6.66602 -2 9.99902 -2zM222 552.999h517c5.33301 0 10.333 1.5 15 4.5s8.33398 7 11.001 12s4 10.5 4 16.5
s-1.33301 11.5 -4 16.5s-6.33398 9 -11.001 12s-9.66699 4.5 -15 4.5h-517c-8 0 -14.833 -3.16699 -20.5 -9.5s-8.5 -14 -8.5 -23s2.83301 -16.833 8.5 -23.5s12.5 -10 20.5 -10zM596 260.999h-57.002v-32h-62v32h-58c-10.667 0 -20.5 -2.66699 -29.5 -8
s-16.167 -12.5 -21.5 -21.5s-8 -18.833 -8 -29.5v-355c0 -10.667 2.66699 -20.5 8 -29.5s12.5 -16.167 21.5 -21.5s18.833 -8 29.5 -8h177c16.667 0 30.834 5.83301 42.501 17.5s17.5 25.5 17.5 41.5v355c0 10.667 -2.66699 20.5 -8 29.5s-12.666 16.167 -21.999 21.5
s-19.333 8 -30 8zM592.998 -149.001h-172v348h172v-348zM991.998 641.999l-1.99902 0.00195312h-3h-90v45c0 6.66699 -1 13 -3 19s-4.83301 11.5 -8.5 16.5s-7.83398 9.33301 -12.501 13s-10.167 6.66699 -16.5 9s-12.5 3.5 -18.5 3.5h-714
c-16.667 0 -30.834 -6 -42.501 -18s-17.5 -26.333 -17.5 -43v-200c0 -16 5.83301 -29.833 17.5 -41.5s25.834 -17.5 42.501 -17.5h714c8 0 15.667 1.5 23 4.5s13.666 7.16699 18.999 12.5s9.5 11.666 12.5 18.999s4.5 15 4.5 23v96h65v-220h-454v0
c-2.66699 0 -5.33398 -0.333008 -8.00098 -1s-5.16699 -1.66699 -7.5 -3s-4.5 -2.83301 -6.5 -4.5s-3.66699 -3.66699 -5 -6s-2.33301 -4.83301 -3 -7.5s-1 -5.33398 -1 -8.00098v-45h62v12h448h3h2c8.66699 0 16 3.33301 22 10s9 14.667 9 24v274c0 4 -0.5 7.66699 -1.5 11
s-2.5 6.5 -4.5 9.5s-4.16699 5.5 -6.5 7.5s-5.16602 3.5 -8.49902 4.5s-6.66602 1.5 -9.99902 1.5zM832.999 492.001h-704v192h704v-192z" />
    <glyph glyph-name="uniE624" unicode="&#xe624;" 
d="M1023 316.5c0 39.667 -13.0049 74.5 -39.0049 104.5s-58 47.667 -96 53c-11.333 94 -52.666 172.833 -123.999 236.5s-154.666 95.5 -249.999 95.5c-98.667 0 -184 -33.333 -256 -100c-67.333 -62.667 -106.333 -139.667 -117 -231c-26 -3.33301 -49.667 -12.333 -71 -27
s-38.166 -33.5 -50.499 -56.5s-18.5 -48.167 -18.5 -75.5c0 -39.333 12.833 -74 38.5 -104s57.834 -47.667 96.501 -53v-21v-208c0 -14.667 3.33301 -28.667 10 -42s15.834 -24.333 27.501 -33s24.834 -14.334 39.501 -17.001v-21c0 -3.33301 0.666992 -6.5 2 -9.5
s3 -5.5 5 -7.5s4.5 -3.66699 7.5 -5s6.16699 -2 9.5 -2c1.33301 0 3 0.333008 5 1s3.66699 1.33398 5 2.00098s2.66602 1.5 3.99902 2.5s2.66602 2.16699 3.99902 3.5s2.33301 2.83301 3 4.5s1.16699 3.33398 1.5 5.00098s0.5 3.5 0.5 5.5v19h504v-19
c0 -6.66699 2.33301 -12.334 7 -17.001s10 -7 16 -7c3.33301 0 6.5 0.666992 9.5 2s5.5 3 7.5 5s3.66699 4.5 5 7.5s2 6.16699 2 9.5v21c22 4 40.333 14.667 55 32s22 37.333 22 60v208v21c38.667 5.33301 70.834 23 96.501 53s38.5 64.833 38.5 104.5zM513.995 759
c82 0 154.167 -27.1699 216.5 -81.5029s98.833 -122.166 109.5 -203.499c-38.667 -5.33301 -71 -23 -97 -53s-39 -65 -39 -105v-1l2 -21v-140h-388v140l2 21v1c0 39.333 -12.5 73.833 -37.5 103.5s-56.5 47.834 -94.5 54.501c7.33301 52.667 26.333 100.834 57 144.501
s69.667 78 117 103s98 37.5 152 37.5zM317.995 106.997h388v-59h-388v59zM863.995 203.997c-3.33301 0 -6.49902 -0.669922 -9.49902 -2.00293s-5.66699 -3 -8 -5s-4 -4.5 -5 -7.5s-1.5 -6.16699 -1.5 -9.5l1 -42v-208c0 -12.667 -4.66699 -23.667 -14 -33
s-20.333 -14 -33 -14h-564c-12.667 0 -23.667 4.66699 -33 14s-14 20.333 -14 33v208l1 42c0 6.66699 -2.33301 12.334 -7 17.001c-2 2 -4.5 3.66699 -7.5 5s-6.16699 2 -9.5 2c-30.667 0 -57 11 -79 33s-33 48.5 -33 79.5s11 57.5 33 79.5s48.333 33 79 33
c31.333 0 58 -10.833 80 -32.5s33 -48.167 33 -79.5l-2 -20v-2v-270c0 -4.66699 1.16699 -8.83398 3.5 -12.501s5.16602 -6.5 8.49902 -8.5s7.33301 -3 12 -3h434c6.66699 0 12.334 2.33301 17.001 7s7 10.334 7 17.001v270v2l-2 20c0 20.667 5.16699 39.5 15.5 56.5
s24 30.5 41 40.5s35.667 15 56 15s39.166 -5 56.499 -15s31 -23.667 41 -41s15 -36.166 15 -56.499s-5 -39.166 -15 -56.499s-23.667 -31 -41 -41s-36 -15 -56 -15z" />
    <glyph glyph-name="uniE625" unicode="&#xe625;" 
d="M248 -182l-104 453l33 34l51 -53l-2 28l16 2l-65 67l-67 -69l114 -492h54l-4 30h-26zM259 252l51 53l52 -53l-1 28h16l-67 69l-64 -67l9 1zM392 253l51 52l52 -53v27h30v-27l51 53l50 -51l1 28l15 -1l-66 68l-66 -69l-67 69l-66 -69l14 1zM843 349l-67 -69l-66 69
l-66 -68l13 -1l-1 -30l54 55l49 -50l2 24l30 -3l-2 -26l54 55l33 -34l-108 -453h-25l-3 -29l-30 3l3 26h-73l-1 -27l-31 1l1 26h-84v-29h-30v29h-85l1 -24l-30 -1l-1 25h-75l3 -27l-30 -3h514l117 492zM305 -182l-46 434l-4 31l-9 -1h-4l-16 -2l2 -28l46 -434l4 -30l30 3z
M362 252l18 -434l1 -25l30 1l-1 24l-18 435l-1 28l-14 -1h-16zM525 279h-30v-27v-434v-29h30v29v434v27zM626 254l-17 -436l-1 -26l31 -1l1 27l16 432l1 30l-13 1h-2l-15 1zM710 -208l30 -3l3 29l46 432l2 26l-30 3l-2 -24l-46 -437zM526 811
c-31.333 0 -57.999 -10.668 -79.999 -32.001s-33 -47 -33 -77c0 -18 4.33301 -35 13 -51c10 -18 23.833 -32.167 41.5 -42.5s37.167 -15.5 58.5 -15.5c23.333 0 44.666 6.33301 63.999 19s33 29.334 41 50.001c5.33301 12.667 8 26 8 40c0 38.667 -16.667 68.667 -50 90
c-19.333 12 -40.333 18.333 -63 19zM603.001 672.999c-2 -4.66699 -4.33594 -9.16504 -7.00293 -13.498s-6 -8.33301 -10 -12l-12 -10.5c-2 -1.33301 -4.16699 -2.5 -6.5 -3.5s-4.5 -2 -6.5 -3s-4.16699 -2 -6.5 -3s-4.66602 -1.83301 -6.99902 -2.5
s-4.66602 -1.16699 -6.99902 -1.5s-4.5 -0.5 -6.5 -0.5h-8c-15.333 0 -29.666 3.66699 -42.999 11s-23.666 17.666 -30.999 30.999c-2.66699 6 -4.83398 12 -6.50098 18s-2.5 12.333 -2.5 19c0 21.333 8.16699 39.666 24.5 54.999s35.833 23 58.5 23
s42.167 -7.66699 58.5 -23s24.5 -33.666 24.5 -54.999c0 -5.33301 -0.5 -10.333 -1.5 -15s-2.5 -9.33398 -4.5 -14.001zM736.998 520.001c-2 20 -7.66797 39.1689 -17.001 57.502s-21.666 34.666 -36.999 48.999s-32.666 26.166 -51.999 35.499
c-2.66699 -7.33301 -7.66699 -16 -15 -26c5.33301 -0.666992 14.666 -6 27.999 -16c18 -12.667 32.5 -28 43.5 -46s17.5 -37 19.5 -57l2 -20l19 -6c35.333 -10.667 63.833 -30 85.5 -58s32.5 -59.667 32.5 -95c0 -2 -0.166992 -4.16699 -0.5 -6.5s-0.5 -4.83301 -0.5 -7.5
l29 -12c0 0.666992 0.166992 2 0.5 4s0.5 4 0.5 6s0.166992 4 0.5 6s0.5 4 0.5 6v4c0 42 -13 79.833 -39 113.5s-59.333 56.5 -100 68.5zM442.997 628.003c-3.33301 3.33301 -6.50195 7.00195 -9.50195 11.002s-5.5 8 -7.5 12c-22.667 -14.667 -41.334 -32.667 -56.001 -54
s-24 -44.333 -28 -69c-36.667 -2.66699 -70.167 -13.5 -100.5 -32.5s-54.166 -43.667 -71.499 -74s-26 -63.5 -26 -99.5v-13l30 12v2c0.666992 46 17.334 85.667 50.001 119s72.667 52 120 56l24 1l3 24c5.33301 33.333 21.666 61.666 48.999 84.999l4 4
c2.66699 2.66699 5.83398 5.66699 9.50098 9s6.83398 5.66602 9.50098 6.99902z" />
    <glyph glyph-name="uniE626" unicode="&#xe626;" 
d="M725 264c-29.333 18 -62.666 31.835 -99.999 41.502s-76.666 14.5 -117.999 14.5c-84 0 -156.333 -18.667 -217 -56c-30 -18.667 -53.333 -40.334 -70 -65.001c-9.33301 -13.333 -16.333 -27.333 -21 -42s-7 -29.334 -7 -44.001c0 -30.667 9.33301 -59.334 28 -86.001
c16.667 -25.333 40 -47.333 70 -66c60.667 -37.333 133.167 -56 217.5 -56s156.833 18.667 217.5 56c30 18.667 53.333 40.667 70 66c4.66699 6.66699 8.66699 13.5 12 20.5s6.16602 14 8.49902 21s4.16602 14.167 5.49902 21.5s2 15 2 23c0 30 -9.33301 58.667 -28 86
c-16.667 24.667 -40 46.334 -70 65.001zM507 -33.998c-44.667 0 -86.5 6.66699 -125.5 20s-70 31.333 -93 54s-34.5 47 -34.5 73c0 39.333 25 73.5 75 102.5s109.5 43.5 178.5 43.5s128.5 -14.5 178.5 -43.5s75 -63.333 75 -103s-25 -74 -75 -103s-109.667 -43.5 -179 -43.5
zM651 198.002c-40 18.667 -87.8311 28.001 -143.498 28.001s-103.5 -9.33301 -143.5 -28c-46.667 -22 -70 -50.5 -70 -85.5s23.333 -63.5 70 -85.5c40 -18.667 87.833 -28 143.5 -28s103.5 9.33301 143.5 28c15.333 7.33301 28.166 15.5 38.499 24.5
s18.166 18.667 23.499 29s8 21.166 8 32.499c0 34.667 -23.333 63 -70 85zM507.002 50.0029c-30.667 0 -58.833 3.49805 -84.5 10.498s-45 15.167 -58 24.5s-19.5 18.666 -19.5 27.999c0 14 15.5 27.833 46.5 41.5s69.5 20.5 115.5 20.5c24 0 46.5 -2 67.5 -6
s38.167 -9.16699 51.5 -15.5s24 -13.166 32 -20.499s12 -14.166 12 -20.499s-4 -13.166 -12 -20.499s-18.667 -14 -32 -20s-30.5 -11.167 -51.5 -15.5s-43.5 -6.5 -67.5 -6.5zM267.003 302.001c3.33301 -2.66699 6.99805 -4.50098 10.998 -5.50098s7.83301 -1.33301 11.5 -1
s7.33398 1.5 11.001 3.5s6.83398 4.66699 9.50098 8c5.33301 6.66699 7.33301 14.167 6 22.5s-5.33301 15.166 -12 20.499c-33.333 26 -50 55 -50 87c0 39.333 25 73.5 75 102.5s109.5 43.5 178.5 43.5s128.5 -14.5 178.5 -43.5s75 -63.167 75 -102.5c0 -32 -17 -61 -51 -87
c-6.66699 -5.33301 -10.5 -12.166 -11.5 -20.499s1.16699 -15.833 6.5 -22.5c6 -8 14 -12 24 -12c2.66699 0 5 0.333008 7 1l6 2c2 0.666992 4 2 6 4c50 38 75 83 75 135c0 30 -9.33301 58.667 -28 86c-16.667 24.667 -40 46.334 -70 65.001
c-60.667 37.333 -133.167 56 -217.5 56s-156.833 -18.667 -217.5 -56c-30 -18.667 -53.333 -40.334 -70 -65.001c-6 -9.33301 -11.167 -18.666 -15.5 -27.999s-7.5 -18.833 -9.5 -28.5s-3 -19.5 -3 -29.5c0 -52 25 -97 75 -135z" />
    <glyph glyph-name="uniE627" unicode="&#xe627;" 
d="M894 698h-764.998c-11.333 0 -21.833 -2.83301 -31.5 -8.5s-17.334 -13.5 -23.001 -23.5s-8.5 -20.667 -8.5 -32v-510c0 -17.333 6.16699 -32.333 18.5 -45s27.166 -19 44.499 -19h319v-95h-159c-9.33301 0 -17 -3.16699 -23 -9.5s-9 -13.833 -9 -22.5v-32h510v32
c0 5.33301 -1.5 10.5 -4.5 15.5s-7 9 -12 12s-10.167 4.5 -15.5 4.5h-160v95h319c18 0 33.167 6.33301 45.5 19s18.5 27.667 18.5 45v510c0 17.333 -6.16699 32.333 -18.5 45s-27.5 19 -45.5 19zM480.002 124c0 8.66699 3.16699 16.168 9.5 22.501s13.833 9.5 22.5 9.5
c2.66699 0 5.33398 -0.333008 8.00098 -1s5.16699 -1.83398 7.5 -3.50098s4.5 -3.33398 6.5 -5.00098s3.66699 -3.66699 5 -6s2.5 -5 3.5 -8s1.5 -5.83301 1.5 -8.5c0 -8.66699 -3.16699 -16.167 -9.5 -22.5s-13.833 -9.5 -22.5 -9.5c-4.66699 0 -9 0.833008 -13 2.5
s-7.33301 4 -10 7s-4.83398 6.33301 -6.50098 10s-2.5 7.83398 -2.5 12.501zM129.002 188.001v446h765v-446h-765z" />
    <glyph glyph-name="uniE628" unicode="&#xe628;" 
d="M886 635c-54.667 54.667 -120.83 81.9971 -198.497 81.9971s-143.834 -27.333 -198.501 -82l-196 -196c-6 -6 -9 -13.5 -9 -22.5s3.16699 -16.667 9.5 -23s13.833 -9.5 22.5 -9.5c4.66699 0 9 0.833008 13 2.5s7.33301 3.83398 10 6.50098l196 196c42 42 93 63 153 63
c11.333 0 22.666 -0.833008 33.999 -2.5s22.166 -4.16699 32.499 -7.5s20.5 -7.66602 30.5 -12.999s19.667 -11.333 29 -18s18 -14 26 -22c42 -42 63 -92.833 63 -152.5s-21 -110.5 -63 -152.5l-328 -328l-328 328c-42 42 -63 92.833 -63 152.5s21 110.5 63 152.5
c20 20.667 43.167 36.334 69.5 47.001s53.833 16 82.5 16c10 0 20.333 -0.666992 31 -2h2h2c4 0 7.83301 0.666992 11.5 2s7 3.16602 10 5.49902s5.5 5.33301 7.5 9s3.33301 7.16699 4 10.5c0 3.33301 -0.166992 6.33301 -0.5 9s-1 5.33398 -2 8.00098
s-2.33301 5.16699 -4 7.5s-3.66699 4.33301 -6 6s-4.83301 3 -7.5 4s-5.33398 1.83301 -8.00098 2.5c-12.667 2 -26 3 -40 3c-29.333 0 -58 -4.66699 -86 -14c-42.667 -13.333 -80 -36 -112 -68c-54.667 -54.667 -82 -120.834 -82 -198.501s27.333 -143.834 82 -198.501
l351 -351c2 -2 4.16699 -3.66699 6.5 -5s5 -2.33301 8 -3s5.83301 -1 8.5 -1c8.66699 0 16.334 3 23.001 9l351 351c54.667 54.667 82 120.834 82 198.501s-27.333 143.834 -82 198.501z" />
    <glyph glyph-name="uniE629" unicode="&#xe629;" 
d="M877 351l-42.0029 195.002c-7.33301 36 -26.666 66.667 -57.999 92s-65 38 -101 38h-327c-36.667 0 -70.667 -12.667 -102 -38s-50.666 -56 -57.999 -92l-42 -195c-11.333 -4.66699 -21.833 -11 -31.5 -19s-18 -17 -25 -27s-12.667 -20.833 -17 -32.5
s-7.16602 -23.5 -8.49902 -35.5l-9 -125c-2 -27.333 3.83301 -52 17.5 -74s32.5 -38 56.5 -48c4 -14.667 10.667 -27.667 20 -39s20.666 -20.166 33.999 -26.499s27.666 -9.5 42.999 -9.5c20.667 0 39.5 6 56.5 18s29.167 27.667 36.5 47h384c4 -9.33301 9 -18 15 -26
s13 -14.833 21 -20.5s17 -10.167 27 -13.5s20.333 -5 31 -5c22.667 0 42.834 7 60.501 21s29.5 32 35.5 54c24 9.33301 42.833 25.166 56.5 47.499s19.5 47.166 17.5 74.499l-9 125c-0.666992 9.33301 -2.5 18.833 -5.5 28.5s-7 18.667 -12 27s-10.667 16.166 -17 23.499
s-13.666 14 -21.999 20s-16.833 11 -25.5 15zM862.997 38.002c-14 -3.33301 -21.333 -12.0049 -22 -26.0049c-0.666992 -11.333 -5.16699 -21 -13.5 -29s-18.166 -12 -29.499 -12c-6 0 -11.5 1 -16.5 3s-9.33301 4.66699 -13 8s-6.83398 7.5 -9.50098 12.5
s-4.33398 10.5 -5.00098 16.5c-0.666992 6.66699 -3.66699 12.5 -9 17.5s-11.333 7.5 -18 7.5h-429c-7.33301 0 -13.666 -2.5 -18.999 -7.5s-8.33301 -10.833 -9 -17.5c-0.666992 -6 -2.16699 -11.5 -4.5 -16.5s-5.5 -9.16699 -9.5 -12.5s-8.5 -6 -13.5 -8
s-10.167 -3 -15.5 -3c-12 0 -22.167 4 -30.5 12s-12.833 17.667 -13.5 29c0 6.66699 -2 12.334 -6 17.001s-9 7.66699 -15 9c-16 4 -28.667 12.333 -38 25s-13.333 27.334 -12 44.001l9 125c1.33301 16.667 7.5 31.667 18.5 45s24.833 22.333 41.5 27
c2.66699 0.666992 5 1.83398 7 3.50098s4 3.5 6 5.5s3.5 4.16699 4.5 6.5s1.5 5.16602 1.5 8.49902c0 0.666992 0.166992 1.33398 0.5 2.00098s0.5 1.33398 0.5 2.00098v3l43 200c1.33301 8.66699 4.5 17.334 9.5 26.001s11 16.5 18 23.5s14.5 13.167 22.5 18.5
s16.833 9.5 26.5 12.5s19.167 4.5 28.5 4.5h327c23.333 0 45.333 -8.5 66 -25.5s33.667 -36.833 39 -59.5l42 -200v-2v-1l1 -4c0 -4 1 -7.5 3 -10.5s4.33301 -5.66699 7 -8s6 -4.16602 10 -5.49902c16 -4.66699 29.5 -13.667 40.5 -27s17.167 -28.333 18.5 -45l10 -125
c0.666992 -16.667 -3.5 -31.334 -12.5 -44.001s-21.5 -21 -37.5 -25zM697.997 165.997c0 17.333 6.16699 32.166 18.5 44.499s27.166 18.5 44.499 18.5s32.166 -6.16699 44.499 -18.5s18.5 -27.166 18.5 -44.499s-6.16699 -32.166 -18.5 -44.499
s-27.166 -18.5 -44.499 -18.5s-32.166 6.16699 -44.499 18.5s-18.5 27.166 -18.5 44.499zM296.997 324.997h430.001c5.33301 0 10.166 0.833008 14.499 2.5s7.83301 4.16699 10.5 7.5c6 7.33301 8.33301 16.333 7 27c-0.666992 0.666992 -1 1.33398 -1 2.00098l-34 146
c-1.33301 8 -4.5 15.167 -9.5 21.5s-11.167 11.5 -18.5 15.5s-14.666 6 -21.999 6h-323c-12 0 -23 -4.16699 -33 -12.5s-16 -18.5 -18 -30.5l-34 -146v-2c-2 -10.667 0 -19.334 6 -26.001c2.66699 -3.33301 6.16699 -6 10.5 -8s9.16602 -3 14.499 -3zM353.998 496.997h316
l27 -116h-370zM199.998 165.997c0 17.333 6.16699 32.166 18.5 44.499s27.333 18.5 45 18.5s32.667 -6.16699 45 -18.5s18.5 -27.166 18.5 -44.499s-6.16699 -32.166 -18.5 -44.499s-27.333 -18.5 -45 -18.5s-32.667 6.16699 -45 18.5s-18.5 27.166 -18.5 44.499z" />
    <glyph glyph-name="uniE62A" unicode="&#xe62a;" 
d="M152 688h304.997c6 0 10.833 -2 14.5 -6s6.16699 -10.167 7.5 -18.5s2.16602 -15.166 2.49902 -20.499s0.333008 -13.833 0 -25.5s-0.5 -19.167 -0.5 -22.5v-169c0 -4 0.166992 -11.167 0.5 -21.5s0.333008 -18.333 0 -24s-0.833008 -12.167 -1.5 -19.5
s-2.5 -13.166 -5.5 -17.499s-6.83301 -7.5 -11.5 -9.5c-3.33301 -1.33301 -8.66602 -2.33301 -15.999 -3s-14.333 -0.833984 -21 -0.500977s-14.334 0.666016 -23.001 0.999023s-14.667 0.5 -18 0.5h-162c-4.66699 0 -11.167 -0.166992 -19.5 -0.5
s-15.166 -0.5 -20.499 -0.5s-11.666 0.333008 -18.999 1s-13.166 1.83398 -17.499 3.50098s-8.16602 4.16699 -11.499 7.5s-5.33301 7.66602 -6 12.999v309c4 12 11.667 19.667 23 23zM193.997 619v-220h220v223h-219c-0.666992 0 -1 -1 -1 -3zM561.997 688
l305.001 -0.00195312c4 -1.33301 7.66699 -3.16602 11 -5.49902s6 -5.33301 8 -9s3.33301 -7.83398 4 -12.501v-301c0 -2.66699 -0.5 -5.16699 -1.5 -7.5s-2.16699 -4.5 -3.5 -6.5s-2.66602 -3.83301 -3.99902 -5.5s-3.16602 -3.16699 -5.49902 -4.5s-4.5 -2.33301 -6.5 -3
c-6 -1.33301 -13.333 -2.16602 -22 -2.49902s-18.834 -0.166016 -30.501 0.500977s-19.834 1 -24.501 1h-157c-4.66699 0 -12.834 -0.333008 -24.501 -1s-22 -1 -31 -1s-16.167 1 -21.5 3s-9.5 5.16699 -12.5 9.5s-5.16699 10.666 -6.5 18.999s-2 15.5 -2 21.5
s0.166992 14.5 0.5 25.5s0.5 18.5 0.5 22.5v158v24c-2 38.667 1.66699 62 11 70c4 2.66699 8.33301 4.33398 13 5.00098zM603.998 618.998l-0.000976562 -220h220v223h-219c-1.33301 0 -1.66602 -1 -0.999023 -3zM293.997 553.998
c8 1.33301 15.332 1.33398 21.999 0.000976562s12.5 -4 17.5 -8s9 -9 12 -15s4.5 -12.667 4.5 -20c0 -18 -7.33301 -31.333 -22 -40s-29.667 -9.33398 -45 -2.00098c-4.66699 2.66699 -8.66699 6 -12 10s-5.83301 8.5 -7.5 13.5s-2.83398 10.167 -3.50098 15.5
s-0.166992 10.5 1.5 15.5s3.83398 9.5 6.50098 13.5s6.33398 7.66699 11.001 11s9.66699 5.33301 15 6zM703.996 553.999c26 5.33301 43 -3.33398 51 -26.001c6.66699 -20 3.33398 -37 -9.99902 -51c-10.667 -10.667 -24.334 -14.667 -41.001 -12
c-14.667 2.66699 -24.834 10.667 -30.501 24s-5.66699 26.833 0 40.5s15.834 21.834 30.501 24.501zM454.996 -84.001l-302.004 -0.00195312c-6 2 -11.167 5 -15.5 9s-7.16602 9.33301 -8.49902 16v308c4 12.667 10.667 20.334 20 23.001
c6 1.33301 13.333 2.16602 22 2.49902s18.834 0.166016 30.501 -0.500977s19.834 -1 24.501 -1h156c4.66699 0 12.834 0.333008 24.501 1s22 0.833984 31 0.500977s16.5 -1.16602 22.5 -2.49902c5.33301 -2 9.66602 -5.16699 12.999 -9.5s5.5 -10.5 6.5 -18.5
s1.66699 -15 2 -21s0.333008 -14.5 0 -25.5s-0.5 -18.833 -0.5 -23.5v-162c0 -4 0.166992 -12.167 0.5 -24.5s0.333008 -21.166 0 -26.499s-1.16602 -12 -2.49902 -20s-4 -14 -8 -18s-9.33301 -6.33301 -16 -7zM193.992 202.997v-220h220v223h-219c-0.666992 0 -1 -1 -1 -3z
M889.992 244.997l0.00390625 -85.999c-0.666992 -4.66699 -0.833984 -20 -0.500977 -46s0.166016 -41.667 -0.500977 -47h-218v50c-3.33301 1.33301 -14.333 1.83301 -33 1.5s-30 -0.5 -34 -0.5c-1.33301 -11.333 -1.83301 -44.5 -1.5 -99.5s0.5 -88.833 0.5 -101.5h-40
c-6.66699 1.33301 -12 4.16602 -16 8.49902s-6.66699 10.5 -8 18.5s-2 15.167 -2 21.5s0.166992 15.333 0.5 27s0.5 19.834 0.5 24.501v158c0 4.66699 -0.333008 13.167 -1 25.5s-0.833984 23 -0.500977 32s1.16602 16.167 2.49902 21.5
c1.33301 3.33301 2.83301 6.16602 4.5 8.49902s4 4.16602 7 5.49902l8 3.5c2.33301 1 6 1.66699 11 2s8.83301 0.5 11.5 0.5h13h13h148v-136h69c0 8 -0.166992 30.833 -0.5 68.5s0.166992 60.167 1.5 67.5c8 0.666992 15.833 0.833984 23.5 0.500977s14.5 -1.33301 20.5 -3
s11 -4.5 15 -8.5s6 -9.66699 6 -17zM299.996 139.998c16.667 1.33301 30.167 -4.5 40.5 -17.5s12.5 -28.167 6.5 -45.5c-6 -15.333 -17.167 -24.333 -33.5 -27s-30.5 1.5 -42.5 12.5s-15.5 26 -10.5 45s18.167 29.833 39.5 32.5zM744.996 -84.002h-74v41
c0 22 0.333008 35 1 39h73v-80zM889.996 -4.00195v-52c-2.66699 -14 -10.667 -23.333 -24 -28h-52c0 5.33301 -0.166992 19 -0.5 41s0.166992 35 1.5 39h75z" />
    <glyph glyph-name="uniE62B" unicode="&#xe62b;" 
d="M716.5 438c41.667 0 81.167 -7.83301 118.5 -23.5s70 -37.167 98 -64.5s50.167 -59.166 66.5 -95.499s24.5 -75 24.5 -116s-8.16699 -80 -24.5 -117s-38.5 -69.333 -66.5 -97s-60.667 -49.5 -98 -65.5s-76.833 -24 -118.5 -24s-80.5 8 -116.5 24s-67.333 37.833 -94 65.5
s-47.667 60 -63 97s-23 76 -23 117s7.66699 79.667 23 116s36.333 68.166 63 95.499s58 48.833 94 64.5s74.833 23.5 116.5 23.5zM886 171h-94l92 89l-46 46l-106 -99l34 -36h-111l33 44l-97 94l-39 -52l88 -86h-80v-57h138v-45h-138v-50h138v-92h53v92h135v50h-135v45h135
v57zM896 719c18 0 34.8311 -3.5 50.498 -10.5s29.334 -16.167 41.001 -27.5s20.667 -24.833 27 -40.5s9.5 -32.167 9.5 -49.5v-152h-140c0 18 -4.16699 30.667 -12.5 38s-21.166 11 -38.499 11h-626c-18 0 -33.667 -6 -47 -18s-20 -27 -20 -45v-385
c0 -18 6.66699 -33.333 20 -46s29 -19 47 -19h213v-140h-291c-18 0 -34.833 4 -50.5 12s-29.334 18.667 -41.001 32s-20.834 28.333 -27.501 45s-10 33.667 -10 51v616c0 17.333 3.33301 33.833 10 49.5s15.834 29.167 27.501 40.5s25.334 20.5 41.001 27.5
s32.5 10.5 50.5 10.5h767z" />
    <glyph glyph-name="uniE62C" unicode="&#xe62c;" 
d="M459 258c-16.667 34 -37.833 68.166 -63.5 102.499l-75.5 104c-24.667 35 -46.334 70.833 -65.001 107.5s-29 74.667 -31 114c-0.666992 15.333 -1.16699 30.333 -1.5 45s-0.833008 28.334 -1.5 41.001l-2 40l88 -90l62 82l54 -76l52 73l85 -74l48 75l62 -75l48 68
l58 -84l83 77c1.33301 -4.66699 2.66602 -12.334 3.99902 -23.001c1.33301 -8.66699 2.5 -21.5 3.5 -38.5s1.5 -38.833 1.5 -65.5c0 -16.667 -3.66699 -36 -11 -58s-17.166 -45.667 -29.499 -71s-26.166 -51.166 -41.499 -77.499l-46 -76l-44 -68l-36 -52.5h-201z
M454.001 80.999c1.33301 8.66699 0.666992 17 -2 25c-5.33301 18 -6.33301 32.667 -3 44l9 30c2.66699 7.33301 8.66699 13.333 18 18h204c0 -12 0.333008 -26.667 1 -44s1 -38.333 1 -63c0 -4 -0.333008 -7.33301 -1 -10h-227zM660.002 22.999
c10 -22 19.3369 -50.665 28.0039 -85.998s13 -73.666 13 -114.999c0 -12 -3 -17.833 -9 -17.5s-12.833 2 -20.5 5s-14.334 5 -20.001 6s-8.5 -3.83301 -8.5 -14.5c0 -6.66699 -1.66699 -10.667 -5 -12s-7.33301 -1 -12 1s-9.83398 5 -15.501 9s-10.667 7.16699 -15 9.5
s-7.83301 3.5 -10.5 3.5s-3.66699 -2.33301 -3 -7c0 -8 -2.33301 -11 -7 -9s-10.667 4.83301 -18 8.5s-15.166 6.66699 -23.499 9s-15.333 -0.5 -21 -8.5s-10.334 -9.33301 -14.001 -4s-6.83398 12.333 -9.50098 21s-5.33398 16.167 -8.00098 22.5s-5.16699 6.33301 -7.5 0
s-7.83301 -12.5 -16.5 -18.5s-17 -9.83301 -25 -11.5s-14.833 -0.333984 -20.5 3.99902s-6.83398 14.166 -3.50098 29.499c8.66699 41.333 19.334 76.666 32.001 105.999s23.667 52.333 33 69h187z" />
    <glyph glyph-name="uniE62D" unicode="&#xe62d;" 
d="M697 289l-206 225h-117l206 -225l-206 -206h117zM697 289z" />
    <glyph glyph-name="uniE62E" unicode="&#xe62e;" 
d="M374 289l206 -206h117l-206 206l206 225h-117zM374 289z" />
    <glyph glyph-name="uniE62F" unicode="&#xe62f;" 
d="M546 403l-206 -206h116l90 89l89 -89h116z" />
    <glyph glyph-name="uniE630" unicode="&#xe630;" 
d="M546 197l205 206h-116l-89 -89l-90 89h-116zM546 197z" />
    <glyph glyph-name="uniE631" unicode="&#xe631;" 
d="M338 -66v68l289 290l-289 290v68l358 -358z" />
    <glyph glyph-name="uniE632" unicode="&#xe632;" 
d="M512 737c-48.667 0 -95.8311 -7.49902 -141.498 -22.499s-86.834 -36.333 -123.501 -64s-68.834 -59.834 -96.501 -96.501s-49 -77.834 -64 -123.501s-22.5 -92.834 -22.5 -141.501s7.5 -95.667 22.5 -141s36.333 -86.333 64 -123s59.834 -68.834 96.501 -96.501
s77.834 -49.167 123.501 -64.5s92.834 -23 141.501 -23c60.667 0 118.667 11.833 174 35.5s103 55.5 143 95.5s71.833 87.667 95.5 143s35.5 113.333 35.5 174c0 40.667 -5.33301 80.334 -16 119.001s-25.667 74.334 -45 107.001s-42.833 62.834 -70.5 90.501
s-57.834 51.167 -90.501 70.5s-68.334 34.333 -107.001 45s-78.334 16 -119.001 16zM512.003 -94.999c-69.333 0 -133.498 17.168 -192.498 51.501s-105.667 81 -140 140s-51.5 123.167 -51.5 192.5c0 52 10.167 101.833 30.5 149.5s47.666 88.5 81.999 122.5
s75.166 61.167 122.499 81.5s97 30.5 149 30.5c69.333 0 133.5 -17.167 192.5 -51.5s105.667 -80.833 140 -139.5s51.5 -122.834 51.5 -192.501s-17.167 -134 -51.5 -193s-81 -105.667 -140 -140s-123.167 -51.5 -192.5 -51.5zM798.005 320.002
c-4 5.33301 -9.49707 11.8369 -16.4971 19.5039s-20.5 20.167 -40.5 37.5s-40.5 32.833 -61.5 46.5s-46.833 25.834 -77.5 36.501s-60.667 16 -90 16s-59.333 -5.33301 -90 -16s-56.5 -22.834 -77.5 -36.501s-41.5 -29.167 -61.5 -46.5s-33.5 -29.833 -40.5 -37.5
s-12.5 -14.167 -16.5 -19.5l-17 -20l17 -20c4 -5.33301 9.5 -11.833 16.5 -19.5s20.5 -20.334 40.5 -38.001s40.5 -33.167 61.5 -46.5s46.833 -25.333 77.5 -36s60.667 -16 90 -16c18.667 0 37.667 2.16699 57 6.5s37.166 10.166 53.499 17.499s32.166 15.166 47.499 23.499
s29.5 17.666 42.5 27.999l34.5 28c10 8.33301 19 16.833 27 25.5l17 18.5c3.33301 3.66699 5.66602 6.5 6.99902 8.5l17 20zM512.008 188.006c-29.333 0 -59.832 7.33496 -91.499 22.002s-56.667 29.167 -75 43.5s-35.5 29.833 -51.5 46.5
c16 16.667 33.167 32.167 51.5 46.5s43.333 28.833 75 43.5s62.167 22 91.5 22s59.833 -7.33301 91.5 -22s56.667 -29.167 75 -43.5s35.5 -29.833 51.5 -46.5c-8.66699 -8.66699 -17.834 -17.334 -27.501 -26.001s-22.167 -18.5 -37.5 -29.5s-30.5 -20.333 -45.5 -28
s-32.167 -14.334 -51.5 -20.001s-38 -8.5 -56 -8.5zM464.009 300.008c0 13.333 4.66699 24.666 14 33.999s20.666 14 33.999 14s24.666 -4.66699 33.999 -14s14 -20.666 14 -33.999s-4.66699 -24.666 -14 -33.999s-20.666 -14 -33.999 -14s-24.666 4.66699 -33.999 14
s-14 20.666 -14 33.999z" />
    <glyph glyph-name="uniE633" unicode="&#xe633;" 
d="M927.5 728.5c-11.667 11 -25.668 16.332 -42.001 15.999s-30.166 -6.16602 -41.499 -17.499l-344 -358c-52 32.667 -109 46 -171 40l301 -290c4 64.667 -13 123.334 -51 176.001l7 -6l41 44l-84 81l21 21l84 -81l281 292c11.333 11.333 16.833 25.166 16.5 41.499
s-6.33301 30 -18 41zM360.999 319.999l-177 -183v-1h-1l70 -67v1l177 184zM287.999 389.999c-2.66699 2.66699 -4.66797 6.33398 -6.00098 11.001c-23.333 -6.66699 -45.666 -16.334 -66.999 -29.001s-41 -28 -59 -46l-82 -85l79 -76l1 1l176 183zM459.998 224.999
l-176 -184c-0.666992 0 -1 -0.333008 -1 -1l18 -18l27 -25l71 17l135 140zM609.998 80.999l-46 44l-135 -140l-1 -1l-15 -65l5 -5l56 -54l80 83c18 18.667 32.833 39.167 44.5 61.5s20.167 45.833 25.5 70.5c-5.33301 0.666992 -10 2.66699 -14 6zM376.998 -48.001l3 14
l-15 -3z" />
    <glyph glyph-name="uniE634" unicode="&#xe634;" 
d="M989 408l-335.002 -0.00195312l125 125c-31.333 31.333 -67.333 55.5 -108 72.5s-83.667 25.5 -129 25.5c-92 0 -170.667 -32.667 -236 -98c-21.333 -20.667 -39.333 -43.667 -54 -69s-25.667 -52.166 -33 -80.499s-11 -57.5 -11 -87.5c0 -92 32.667 -170.833 98 -236.5
s144.166 -98.5 236.499 -98.5s171.166 32.667 236.499 98l8 8c2.66699 2.66699 5.33398 5.66699 8.00098 9l84 -74c-42 -47.333 -92.167 -84.5 -150.5 -111.5s-120.166 -40.5 -185.499 -40.5c-60.667 0 -118.667 11.667 -174 35s-102.833 55 -142.5 95
s-71.334 87.5 -95.001 142.5s-35.5 112.833 -35.5 173.5s11.833 118.5 35.5 173.5s55.334 102.5 95.001 142.5s87.167 71.833 142.5 95.5s113 35.5 173 35.5c40.667 0 80.334 -5.33301 119.001 -16s74.334 -25.667 107.001 -45s62.667 -42.666 90 -69.999l131 131v-335v0z
M988.998 407.998z" />
    <glyph glyph-name="uniE635" unicode="&#xe635;" 
d="M676 812l-516 -512l516 -512h188l-512 512l512 512h-188z" />
    <glyph glyph-name="uniE636" unicode="&#xe636;" horiz-adv-x="1000" 
d="M1127 533l-663 -663l-331 331l663 663zM0 68l331 -331h-331v331z" />
    <glyph glyph-name="uniE637" unicode="&#xe637;" horiz-adv-x="1000" 
d="M532 535l465 -467h-199v-331h-533l-1 331h-196zM1063 864v-133h-1063v133h1063z" />
    <glyph glyph-name="uniE638" unicode="&#xe638;" horiz-adv-x="1025" 
d="M449 -211l573.002 192.998c-0.666992 6 -1.83398 14.833 -3.50098 26.5s-5.83398 34.834 -12.501 69.501s-14.5 68.834 -23.5 102.501s-21.667 73.5 -38 119.5s-34.166 88.833 -53.499 128.5s-43.5 79.5 -72.5 119.5s-60 74.167 -93 102.5s-71.667 51.5 -116 69.5
s-91.5 27 -141.5 27c-50.667 0 -98.167 -14 -142.5 -42s-81.833 -64.5 -112.5 -109.5s-58.834 -94.667 -84.501 -149s-46.167 -108.833 -61.5 -163.5s-28.333 -104.5 -39 -149.5s-18 -81.5 -22 -109.5l-6 -42l449 -193v0zM516.002 -123.002
c5.33301 76 13.002 145.667 23.002 209c13.333 86 30 153.667 50 203c5.33301 13.333 10.833 25 16.5 35s11.167 18.333 16.5 25c4 4 7.66699 7.33301 11 10s6.33301 4.33398 9 5.00098c3.33301 0.666992 6.66602 1 9.99902 1c25.333 0 55.333 -17.333 90 -52
c33.333 -32.667 67.333 -79.334 102 -140.001c27.333 -46.667 53.666 -98.667 78.999 -156zM600.004 657.998c38 -17.333 73.668 -41.999 107.001 -73.999c59.333 -58 111 -138.333 155 -241c23.333 -56.667 44 -118.667 62 -186c-18.667 34.667 -37.5 66.667 -56.5 96
s-40.333 57.666 -64 84.999s-48.5 49 -74.5 65s-51.667 24 -77 24c-4 0 -7.66699 -0.166992 -11 -0.5s-7 -0.833008 -11 -1.5c-25.333 -5.33301 -48.333 -23.333 -69 -54s-37.5 -70.334 -50.5 -119.001s-23.333 -96.167 -31 -142.5s-13.834 -95.5 -18.501 -147.5
c-20 142 -30 255.333 -30 340c0 134.667 10 262.334 30 383.001h3h4c46.667 0 90.667 -9 132 -27zM82.0049 90.999c19.333 92.667 43.333 177.333 72 254c38.667 104 82.667 185 132 243c27.333 32 56 56 86 72l12 6c4 2 8 3.66699 12 5c-18 -118.667 -27 -241.667 -27 -369
c0 -107.333 14 -250.333 42 -429l-342 147c4 23.333 8.33301 47 13 71zM265.005 425.998c-11.333 2.66699 -22.833 0.170898 -34.5 -7.49609s-21.667 -17.834 -30 -30.501s-16 -25.834 -23 -39.501s-12.167 -25 -15.5 -34s-5 -13.833 -5 -14.5l163 -67v10
c0.666992 6.66699 1 15.167 1 25.5s-0.5 22 -1.5 35s-2.66699 26.167 -5 39.5s-5.5 25.666 -9.5 36.999s-9.5 21.166 -16.5 29.499s-14.833 13.833 -23.5 16.5z" />
    <glyph glyph-name="uniE639" unicode="&#xe639;" 
d="M250 303h-92c-4 0 -7.5 -1 -10.5 -3s-5.33301 -4.33301 -7 -7s-2.5 -6 -2.5 -10v-203c0 -5.33301 1.83301 -10 5.5 -14s8.5 -6 14.5 -6h92c2.66699 0 5.33398 0.666992 8.00098 2l67 31v43l-80 -37h-68v165h69v-90c0 -6 2.66699 -9 8 -9c2 0 3.66699 0.333008 5 1
s2.33301 1.66699 3 3s1 3 1 5v82l62 -29v43l-67 31c-2.66699 1.33301 -5.33398 2 -8.00098 2zM349 41h498.005c7.33301 0 13.666 2.66699 18.999 8s8 11.666 8 18.999v91c0 2 -0.166992 3.83301 -0.5 5.5s-0.833008 3.33398 -1.5 5.00098s-1.33398 3.16699 -2.00098 4.5
l-4 4c-0.666992 1.33301 -1.83398 2.5 -3.50098 3.5s-3.33398 1.83301 -5.00098 2.5s-3.33398 1.16699 -5.00098 1.5s-3.5 0.5 -5.5 0.5h-56v134c0 7.33301 -2.66699 13.666 -8 18.999s-11.666 8 -18.999 8h-415c-2 0 -4.16699 -0.333008 -6.5 -1s-4.5 -1.66699 -6.5 -3
s-3.83301 -2.83301 -5.5 -4.5s-3.16699 -3.5 -4.5 -5.5s-2.33301 -4.16699 -3 -6.5s-1 -4.5 -1 -6.5v-37v-165v-50c0 -7.33301 2.66699 -13.666 8 -18.999s11.666 -8 18.999 -8zM361.005 307h391v-160h83v-67h-474v227zM453.005 533c-12 0 -22 -4.00098 -30 -12.001
s-12 -18 -12 -30c0 -7.33301 1.83301 -14.166 5.5 -20.499s8.66699 -11.333 15 -15s13.5 -5.5 21.5 -5.5c11.333 0 21 4 29 12s12 17.667 12 29c0 3.33301 -0.166992 6.33301 -0.5 9s-1.16602 5.33398 -2.49902 8.00098l-4 6c-1.33301 2.66699 -3 5 -5 7s-4 3.66699 -6 5
l-8 4c-2 1.33301 -4.33301 2.16602 -7 2.49902s-5.33398 0.5 -8.00098 0.5zM452.505 475.999c-4.33301 0 -7.99805 1.50195 -10.998 4.50195s-4.5 6.5 -4.5 10.5c0 3.33301 0.666992 6.16602 2 8.49902s3.16602 4.16602 5.49902 5.49902s5.16602 2 8.49902 2
c4 0 7.5 -1.5 10.5 -4.5s4.5 -6.66699 4.5 -11s-1.5 -8 -4.5 -11s-6.66699 -4.5 -11 -4.5zM675.507 533.001c-5.66699 0 -11.165 -1 -16.498 -3s-9.83301 -5 -13.5 -9s-6.66699 -8.5 -9 -13.5s-3.5 -10.5 -3.5 -16.5c0 -11.333 4.16699 -21 12.5 -29s18.166 -12 29.499 -12
s21.166 4 29.499 12s12.5 17.667 12.5 29c0 6 -1.16699 11.5 -3.5 16.5s-5.33301 9.5 -9 13.5s-8 7 -13 9s-10.333 3 -16 3zM675.009 476.001c-4 0 -7.5 1.5 -10.5 4.5s-4.5 6.66699 -4.5 11s1.5 8 4.5 11s6.5 4.5 10.5 4.5s7.5 -1.5 10.5 -4.5s4.5 -6.83301 4.5 -11.5
c0 -2 -0.333008 -3.83301 -1 -5.5s-1.66699 -3.16699 -3 -4.5s-3 -2.5 -5 -3.5s-4 -1.5 -6 -1.5zM675.009 628.001c-23.333 0 -45.333 -6 -66 -18c-18.667 -10 -33.667 -24 -45 -42c-12 17.333 -27 31.333 -45 42c-20.667 12 -42.667 18 -66 18
c-24.667 0 -47.167 -6 -67.5 -18s-36.5 -28.167 -48.5 -48.5s-18 -42.5 -18 -66.5c0 -37.333 13 -69 39 -95s57.667 -39 95 -39c23.333 0 45.333 6 66 18c8.66699 5.33301 16.834 11.5 24.501 18.5s14.5 14.833 20.5 23.5c11.333 -17.333 26.333 -31.333 45 -42
c20.667 -12 42.667 -18 66 -18c36.667 0 68.167 13 94.5 39s39.5 57.667 39.5 95c0 18 -3.66699 35.167 -11 51.5s-16.833 30.5 -28.5 42.5s-25.834 21.5 -42.501 28.5s-34 10.5 -52 10.5zM675.009 397.001c-26.667 0 -49.667 9.50195 -69 28.502s-29 42.167 -29 69.5
c0 8.66699 1.16699 17.167 3.5 25.5s5.66602 16.166 9.99902 23.499s9.5 14 15.5 20s12.5 11.167 19.5 15.5s14.833 7.66602 23.5 9.99902s17.334 3.5 26.001 3.5c13.333 0 26 -2.66699 38 -8s22.5 -12.333 31.5 -21s16 -19 21 -31s7.5 -24.667 7.5 -38
c0 -18 -4.33301 -34.5 -13 -49.5s-20.5 -26.833 -35.5 -35.5s-31.5 -13 -49.5 -13zM452.509 593.003c27 0 50 -9.66699 69 -29s28.5 -42.5 28.5 -69.5s-9.5 -50 -28.5 -69s-41.833 -28.5 -68.5 -28.5c-18 0 -34.5 4.33301 -49.5 13s-26.833 20.5 -35.5 35.5
s-13 31.5 -13 49.5c0 26.667 9.5 49.667 28.5 69s42 29 69 29zM512.009 812.003c-46 0 -91.168 -6.16602 -135.501 -18.499s-85.166 -29.5 -122.499 -51.5s-71.833 -48.833 -103.5 -80.5s-58.5 -66.167 -80.5 -103.5s-39.167 -78 -51.5 -122s-18.5 -89.333 -18.5 -136
c0 -69.333 13.667 -135.666 41 -198.999s63.833 -117.833 109.5 -163.5s100 -82 163 -109s129.167 -40.5 198.5 -40.5s135.5 13.5 198.5 40.5s117.333 63.333 163 109s82.167 100.167 109.5 163.5s41 129.666 41 198.999s-13.667 135.666 -41 198.999
s-63.833 117.833 -109.5 163.5s-100 82 -163 109s-129.167 40.5 -198.5 40.5zM512.008 -172.996c-64 0 -125.168 12.501 -183.501 37.501s-108.666 58.667 -150.999 101s-76 92.666 -101 150.999s-37.5 119.5 -37.5 183.5s12.5 125.167 37.5 183.5
s58.667 108.666 101 150.999s92.666 76 150.999 101s119.5 37.5 183.5 37.5c51.333 0 101 -8 149 -24s91.333 -38.5 130 -67.5s72.667 -63 102 -102s52 -82.5 68 -130.5s24 -97.667 24 -149c0 -64 -12.5 -125.167 -37.5 -183.5s-58.667 -108.666 -101 -150.999
s-92.666 -76 -150.999 -101s-119.5 -37.5 -183.5 -37.5z" />
    <glyph glyph-name="uniE63A" unicode="&#xe63a;" 
d="M419 -83c-9.33301 0 -16.998 3.33203 -22.998 9.99902c-14.667 16.667 -32.334 31.167 -53.001 43.5s-39.334 21.333 -56.001 27s-33.834 10.167 -51.501 13.5s-30 5.16602 -37 5.49902s-12.167 0.5 -15.5 0.5c-8.66699 0 -16 2.83301 -22 8.5
s-9.16699 12.834 -9.5 21.501s2.5 15.834 8.5 21.501s13.333 8.83398 22 9.50098c4 0 10.667 -0.333008 20 -1s24.5 -2.83398 45.5 -6.50098s41.833 -9 62.5 -16s43.167 -18 67.5 -33s45.833 -32.833 64.5 -53.5c6 -6 8.83301 -13.333 8.5 -22s-3.83301 -15.667 -10.5 -21
c-2 -2 -4.16699 -3.5 -6.5 -4.5s-4.66602 -1.83301 -6.99902 -2.5s-4.83301 -1 -7.5 -1zM627.002 -83.001c-8 0 -14.9941 2.66699 -20.9941 8c-6 6 -9.16699 13.167 -9.5 21.5s2.16699 15.5 7.5 21.5c19.333 20.667 41.5 38.5 66.5 53.5s47.667 26 68 33
s40.833 12.333 61.5 16s35.667 5.83398 45 6.50098s16 1 20 1c8 0 15 -3 21 -9s9 -13.333 9 -22c0 -4 -0.833008 -7.83301 -2.5 -11.5s-3.83398 -6.83398 -6.50098 -9.50098s-5.83398 -4.83398 -9.50098 -6.50098s-7.83398 -2.5 -12.501 -2.5v0
c-4 0 -9.16699 -0.166992 -15.5 -0.5s-18.5 -2.16602 -36.5 -5.49902s-35.333 -7.83301 -52 -13.5s-35.334 -14.667 -56.001 -27s-38.667 -26.833 -54 -43.5c-2 -2 -4.33301 -3.66699 -7 -5s-5.33398 -2.5 -8.00098 -3.5s-5.33398 -1.5 -8.00098 -1.5zM572.008 71.999
h-97.998c-1.33301 0 -2.83301 0.166992 -4.5 0.5s-3.16699 0.5 -4.5 0.5c-52 6.66699 -99.667 24.5 -143 53.5s-79.333 67.5 -108 115.5c-33.333 55.333 -53.5 116 -60.5 182s0.5 124.667 22.5 176c5.33301 12 14.666 18.333 27.999 19h9c59.333 0 114.333 -11 165 -33
c36 65.333 77 114.333 123 147c1.33301 1.33301 2.66602 2.33301 3.99902 3l4 2c4.66699 2 9.66699 2.83301 15 2.5s10.333 -1.83301 15 -4.5l4 -4c45.333 -32.667 86 -82 122 -148c26 11.333 53 20 81 26s57 9 87 9h10c13.333 -0.666992 22.666 -7 27.999 -19
c22 -52 29.5 -110.833 22.5 -176.5s-27.167 -126.167 -60.5 -181.5c-28.667 -48 -64.667 -86.5 -108 -115.5s-91 -46.833 -143 -53.5c-3.33301 -0.666992 -6.66602 -1 -9.99902 -1zM480.01 132.999l87.001 -0.000976562h1h1c90 10 160 56.667 210 140
c26 43.333 42.833 91.166 50.5 143.499s4.83398 99.5 -8.49902 141.5c-56.667 -2 -108 -15.667 -154 -41c-2.66699 -1.33301 -5.33398 -2.33301 -8.00098 -3s-5.5 -0.833984 -8.5 -0.500977s-5.83301 0.833008 -8.5 1.5c-4 1.33301 -7.5 3.33301 -10.5 6s-5.5 6 -7.5 10
l-19.5 35c-6.33301 11.333 -12.833 22 -19.5 32s-13.5 19.333 -20.5 28s-14 16.834 -21 24.501s-14.5 14.5 -22.5 20.5c-37.333 -31.333 -71.333 -77.666 -102 -138.999c-2 -3.33301 -4.5 -6.33301 -7.5 -9s-6.5 -4.66699 -10.5 -6
c-3.33301 -0.666992 -6.33301 -1.16699 -9 -1.5s-5.33398 -0.166016 -8.00098 0.500977s-5.33398 1.66699 -8.00098 3c-22 12 -45.667 21.167 -71 27.5s-51.666 10.166 -78.999 11.499c-13.333 -42 -16.333 -89.167 -9 -141.5s24 -100.166 50 -143.499
c50 -83.333 120.333 -130 211 -140h2zM523.011 -109.002c-8.66699 0 -15.999 3.00098 -21.999 9.00098s-9 13 -9 21v181c0 8.66699 3 16 9 22s13.333 9 22 9s16 -3 22 -9s9 -13.333 9 -22v-181c0 -5.33301 -1.33301 -10.333 -4 -15s-6.33398 -8.33398 -11.001 -11.001
s-10 -4 -16 -4zM523.012 -109.001z" />
    <glyph glyph-name="uniE63B" unicode="&#xe63b;" 
d="M930 715l-3.00195 19.0039l-18 3c-18.667 3.33301 -41.667 5 -69 5c-68 0 -128.333 -12.333 -181 -37c-50.667 -23.333 -94.667 -77 -132 -161l-16 -39c-8 25.333 -17.667 48.666 -29 69.999c-22.667 40 -51.667 72 -87 96c-70 46.667 -145.667 70 -227 70
c-26.667 0 -49 -2.33301 -67 -7l-17 -5l-2 -18c-3.33301 -32.667 -1.33301 -69.334 6 -110.001c6 -36.667 16 -69.667 30 -99c18 -38 41.667 -69.333 71 -94c42 -36 85.667 -62 131 -78c36.667 -12.667 73.334 -19 110.001 -19c19.333 0 38.333 1.66699 57 5v-67h-247v-304
c0 -23.333 8.33301 -43.333 25 -60s36.667 -25 60 -25h389c9.33301 0 18.333 1.5 27 4.5s16.5 7 23.5 12s13 11 18 18s9 14.833 12 23.5s4.5 17.667 4.5 27v304h-260v142c11.333 -2 22.5 -3.66699 33.5 -5s21.667 -2.33301 32 -3s20.5 -1 30.5 -1
c49.333 0 92.833 7.33301 130.5 22s69.5 36.667 95.5 66c11.333 13.333 21.5 28 30.5 44s16 31.333 21 46s9 30 12 46s5 29.667 6 41s1.33301 22.666 1 33.999s-0.666016 19.166 -0.999023 23.499s-0.5 7.83301 -0.5 10.5zM747.998 -54.9961
c0 -9.33301 -3.33301 -17.333 -10 -24s-14.667 -10 -24 -10h-389c-9.33301 0 -17.333 3.33301 -24 10s-10 14.667 -10 24v253h457v-253zM429.998 362.004c-72 0 -141.333 28.334 -208 85.001c-23.333 20 -42.333 45.333 -57 76c-12 25.333 -20.667 53.666 -26 84.999
c-2.66699 14.667 -4.5 28.834 -5.5 42.501s-1.5 25.834 -1.5 36.501c3.33301 0.666992 6.83301 1.16699 10.5 1.5s7.66699 0.666016 12 0.999023s8.83301 0.5 13.5 0.5c70.667 0 136.667 -20.667 198 -62c28.667 -19.333 52.334 -45 71.001 -77
c14.667 -27.333 25.667 -58 33 -92c3.33301 -17.333 5.83301 -33.833 7.5 -49.5s2.5 -29.834 2.5 -42.501c-16.667 -3.33301 -33.334 -5 -50.001 -5zM821.998 504.005c-41.333 -46.667 -103.667 -70 -187 -70c-28 0 -58.333 2.66699 -91 8c8.66699 28.667 18.667 56 30 82
c32 72 67.333 117 106 135c46 21.333 99.333 32 160 32c14 0 27.333 -0.666992 40 -2c2 -78 -17.333 -139.667 -58 -185z" />
    <glyph glyph-name="uniE63C" unicode="&#xe63c;" 
d="M914 739h-256.001c-29.333 0 -56.666 -6.5 -81.999 -19.5s-46.666 -30.833 -63.999 -53.5c-17.333 22.667 -38.666 40.5 -63.999 53.5s-52.666 19.5 -81.999 19.5h-256c-10 0 -19.5 -2 -28.5 -6s-16.833 -9.16699 -23.5 -15.5s-11.834 -14 -15.501 -23
s-5.5 -18.5 -5.5 -28.5v-677c0 -20 7 -37.167 21 -51.5s31.333 -21.5 52 -21.5h269c37.333 -36.667 81.666 -55 132.999 -55s95.666 18.333 132.999 55h269c20.667 0 38 7.16699 52 21.5s21 31.5 21 51.5v677c0 20 -7 37.167 -21 51.5s-31.333 21.5 -52 21.5zM913.999 -11
l-284.003 0.00195312c-11.333 0 -20.666 -4.33301 -27.999 -13c-24 -28 -54 -42 -90 -42c-17.333 0 -33.833 3.66699 -49.5 11s-29.167 17.666 -40.5 30.999c-7.33301 8.66699 -16.666 13 -27.999 13h-284v677h256c30 0 55.667 -10.833 77 -32.5s32 -47.5 32 -77.5v-311
c0 -6.66699 1.66699 -12.834 5 -18.501s7.83301 -10 13.5 -13s11.834 -4.5 18.501 -4.5c10 0 18.667 3.5 26 10.5s11 15.5 11 25.5v311c0 30 10.667 55.833 32 77.5s47 32.5 77 32.5h256v-677z" />
    </font>
</defs>
</svg>
